<svg width="162" height="47" viewBox="0 0 162 47" fill="none" xmlns="http://www.w3.org/2000/svg">
    <path d="M80.7259 34.3885H70.5198L67.8701 40.1758H63.989L75.7789 14.8373L87.1628 40.1721H83.2253L80.7259 34.3885ZM79.2596 31.0046L75.7253 22.8975L72.02 31.0046H79.2596Z" fill="#fff"/>
    <path d="M88.7916 25.1365L92.683 33.583L96.5576 25.1365H100.467L92.6511 40.1674L84.902 25.1365H88.7916Z" fill="#fff"/>
    <path d="M115.174 33.4758H104.393C104.428 34.5714 104.855 35.6179 105.597 36.4245C105.953 36.7834 106.38 37.0647 106.85 37.2508C107.321 37.4368 107.824 37.5235 108.33 37.5055C109.093 37.5357 109.846 37.3191 110.477 36.8879C111.234 36.2387 111.876 35.4653 112.375 34.601L115.308 36.2365C114.9 36.946 114.419 37.611 113.873 38.2208C113.398 38.7466 112.852 39.2037 112.251 39.579C111.672 39.9352 111.041 40.1982 110.381 40.3583C109.668 40.5277 108.937 40.6107 108.204 40.6055C107.201 40.6491 106.201 40.4789 105.269 40.1062C104.337 39.7334 103.495 39.1667 102.799 38.4435C101.391 36.8594 100.659 34.7866 100.76 32.6694C100.663 30.5641 101.369 28.5005 102.734 26.8952C104.133 25.5112 106.018 24.7298 107.985 24.7184C109.953 24.707 111.847 25.4664 113.262 26.8341C114.616 28.4603 115.301 30.5414 115.176 32.6543L115.174 33.4758ZM111.606 30.6306C111.472 29.8147 111.039 29.0781 110.391 28.5644C109.743 28.0506 108.927 27.7967 108.102 27.8521C107.698 27.8477 107.296 27.9113 106.913 28.04C106.547 28.1667 106.205 28.3549 105.902 28.5965C105.595 28.842 105.332 29.1368 105.123 29.4688C104.898 29.8264 104.731 30.2172 104.628 30.6268L111.606 30.6306Z" fill="#fff"/>
    <path d="M126.919 27.7007L124.047 29.2301C123.596 28.3026 123.035 27.8395 122.365 27.8408C122.062 27.8337 121.768 27.9457 121.547 28.1529C121.435 28.2556 121.347 28.3813 121.288 28.5213C121.229 28.6613 121.202 28.8124 121.207 28.964C121.207 29.5406 121.876 30.1117 123.214 30.6776C124.576 31.1769 125.837 31.9196 126.933 32.8696C127.598 33.6081 127.942 34.5799 127.891 35.572C127.904 36.2595 127.767 36.9417 127.49 37.571C127.213 38.2003 126.802 38.7617 126.286 39.2162C125.586 39.8171 124.753 40.2411 123.855 40.4525C122.957 40.664 122.022 40.6567 121.128 40.4312C120.234 40.2058 119.407 39.7688 118.717 39.1571C118.027 38.5454 117.494 37.7768 117.163 36.9161L120.126 35.5419C120.378 36.039 120.694 36.501 121.066 36.9161C121.474 37.3019 122.017 37.5125 122.579 37.5027C123.752 37.5027 124.339 36.9675 124.34 35.8972C124.34 35.28 123.887 34.7038 122.981 34.1686C122.631 33.9938 122.281 33.824 121.931 33.6592C121.581 33.4944 121.226 33.3245 120.866 33.1497C120.063 32.8036 119.339 32.2994 118.735 31.6674C118.19 30.98 117.91 30.1191 117.947 29.2423C117.93 28.6376 118.041 28.0361 118.272 27.4774C118.504 26.9186 118.851 26.4152 119.292 26.0003C120.191 25.152 121.389 24.6918 122.626 24.7192C123.561 24.7148 124.475 24.999 125.243 25.5328C126.011 26.0667 126.596 26.8244 126.917 27.7026L126.919 27.7007Z" fill="#fff"/>
    <path d="M130.224 14.0995H133.702V26.3876C134.801 25.3324 136.262 24.7364 137.785 24.7211C138.543 24.6879 139.3 24.8183 140.003 25.1034C140.706 25.3886 141.34 25.8217 141.861 26.3735C142.838 27.6925 143.3 29.3232 143.158 30.9587V40.1759H139.68V31.2867C139.756 30.3681 139.532 29.4496 139.04 28.6698C138.783 28.3838 138.463 28.1618 138.105 28.0213C137.747 27.8808 137.362 27.8257 136.979 27.8605C136.49 27.8105 135.997 27.8882 135.548 28.0859C135.099 28.2836 134.709 28.5946 134.416 28.9885C133.834 30.2094 133.583 31.5617 133.688 32.91V40.1853H130.21L130.224 14.0995Z" fill="#fff"/>
    <path d="M157.853 25.1375H161.343V40.1769H157.853V38.6006C156.616 39.8653 154.927 40.5867 153.157 40.6062C151.388 40.6258 149.683 39.9419 148.418 38.7049C148.302 38.5915 148.191 38.474 148.084 38.3524C146.712 36.7585 145.99 34.7071 146.061 32.6055C145.991 30.5364 146.715 28.5189 148.084 26.9657C148.71 26.2406 149.488 25.6625 150.363 25.2725C151.239 24.8826 152.189 24.6905 153.147 24.7098C154.04 24.7213 154.92 24.9196 155.731 25.292C156.542 25.6643 157.267 26.2025 157.857 26.8717L157.853 25.1375ZM149.609 32.6112C149.554 33.8865 149.967 35.1381 150.77 36.1304C151.133 36.5702 151.592 36.9222 152.11 37.1601C152.629 37.3981 153.194 37.5158 153.765 37.5046C154.349 37.5256 154.932 37.4175 155.47 37.1881C156.008 36.9588 156.49 36.6137 156.88 36.1774C157.65 35.1773 158.068 33.9505 158.068 32.6882C158.068 31.4259 157.65 30.1991 156.88 29.1991C156.497 28.7605 156.021 28.4124 155.487 28.1801C154.953 27.9478 154.374 27.8371 153.792 27.8559C153.223 27.8468 152.66 27.9639 152.142 28.1987C151.624 28.4336 151.164 28.7804 150.796 29.2141C149.992 30.1596 149.568 31.3705 149.607 32.6112H149.609Z" fill="#fff"/>
    <path d="M31.0921 0L19.6471 25.035L25.0002 29.9848L30.7104 35.2711L36.4179 29.9848L42.021 24.8028L31.0921 0Z" fill="url(#paint0_linear_72_1209)"/>
    <path d="M0 6.86365L9.6036 47L19.6396 25.0378L0 6.86365Z" fill="#69BDFA"/>
    <path d="M24.9964 29.9857L19.648 25.0359L9.61017 46.9972H18.0332L30.7133 35.2721L24.9964 29.9857Z" fill="url(#paint1_linear_72_1209)"/>
    <path d="M42.0266 24.8029L51.8154 46.9983L61.4265 6.86938L42.0266 24.8029Z" fill="#69BDFA"/>
    <path d="M36.4254 29.9839L30.7161 35.2675L43.3924 46.9954H51.8182L42.0313 24.8L36.4254 29.9839Z" fill="url(#paint2_linear_72_1209)"/>
    <path d="M18.0322 46.9962H43.3896L30.7123 35.2683L18.0322 46.9962Z" fill="#2868F3"/>
    <defs>
        <linearGradient id="paint0_linear_72_1209" x1="29.2231" y1="-8.9236" x2="33.2084" y2="36.6862" gradientUnits="userSpaceOnUse">
            <stop stop-color="#2C2AD2"/>
            <stop offset="1" stop-color="#2BBAFE"/>
        </linearGradient>
        <linearGradient id="paint1_linear_72_1209" x1="20.1617" y1="25.0359" x2="20.1617" y2="46.9972" gradientUnits="userSpaceOnUse">
            <stop stop-color="#2863E4"/>
            <stop offset="1" stop-color="#3A87F4"/>
        </linearGradient>
        <linearGradient id="paint2_linear_72_1209" x1="41.2671" y1="24.8" x2="41.2671" y2="46.9954" gradientUnits="userSpaceOnUse">
            <stop stop-color="#2863E4"/>
            <stop offset="1" stop-color="#3A87F4"/>
        </linearGradient>
    </defs>
</svg>
