<svg width="400" height="77" viewBox="0 0 400 77" fill="none" xmlns="http://www.w3.org/2000/svg">
<path d="M99.35 33.4C100.85 33.4 102.25 33.1 103.65 32.5C104.95 31.9 106.15 30.9 107.05 29.7L111.15 33.9C107.95 37.5 104.25 39.3 99.85 39.3C97.85 39.4 95.95 39.1 94.05 38.3C92.25 37.6 90.55 36.5 89.05 35.2C87.65 33.9 86.55 32.2 85.85 30.5C85.15 28.7 84.75 26.8 84.85 24.9C84.75 23 85.15 21 85.85 19.2C86.55 17.4 87.65 15.8 89.05 14.4C90.55 13 92.35 11.9 94.25 11.2C96.15 10.5 98.25 10.2 100.35 10.3C102.45 10.4 104.45 10.9 106.35 11.8C108.25 12.7 109.85 14 111.25 15.6L107.35 20.1C106.45 18.9 105.35 18 104.05 17.4C102.75 16.8 101.35 16.4 99.85 16.4C97.65 16.4 95.45 17.2 93.75 18.7C92.85 19.5 92.25 20.5 91.75 21.6C91.35 22.7 91.15 23.9 91.15 25C91.05 26.2 91.25 27.3 91.65 28.4C92.05 29.5 92.65 30.5 93.55 31.3C95.15 32.6 97.25 33.4 99.35 33.4ZM115.95 38.9V10.7H122.25V33.3H134.35V38.9H115.95ZM161.95 35C159.05 37.7 155.35 39.2 151.35 39.2C147.35 39.2 143.65 37.7 140.75 35C139.35 33.7 138.25 32.1 137.55 30.3C136.85 28.5 136.45 26.6 136.45 24.7C136.35 22.8 136.75 20.8 137.45 19.1C138.15 17.3 139.25 15.7 140.65 14.4C143.55 11.7 147.25 10.2 151.25 10.2C155.25 10.2 158.95 11.7 161.85 14.4C163.25 15.7 164.35 17.3 165.05 19.1C165.75 20.9 166.15 22.8 166.05 24.7C166.15 26.6 165.75 28.6 165.05 30.3C164.45 32.1 163.35 33.7 161.95 35ZM159.75 24.7C159.75 22.3 158.85 20 157.25 18.2C156.45 17.4 155.55 16.7 154.55 16.2C153.55 15.7 152.35 15.5 151.25 15.5C150.15 15.5 149.05 15.7 147.95 16.2C146.95 16.7 145.95 17.3 145.25 18.2C143.65 20 142.75 22.3 142.75 24.7C142.75 27.1 143.65 29.4 145.25 31.2C146.05 32 146.95 32.7 147.95 33.2C148.95 33.7 150.15 33.9 151.25 33.9C152.35 33.9 153.45 33.7 154.55 33.2C155.55 32.7 156.55 32.1 157.25 31.2C158.05 30.3 158.75 29.3 159.15 28.2C159.65 27 159.85 25.9 159.75 24.7ZM179.05 31.7C179.55 32.4 180.25 32.9 180.95 33.2C181.65 33.5 182.55 33.7 183.35 33.7C184.15 33.7 184.95 33.6 185.65 33.2C186.35 32.9 187.05 32.3 187.45 31.7C188.55 30.1 189.05 28.3 188.95 26.4V10.8H195.25V26.6C195.25 30.7 194.15 33.8 191.85 36C190.65 37.1 189.35 38 187.85 38.5C186.35 39.1 184.75 39.3 183.15 39.3C181.55 39.3 179.95 39.1 178.45 38.5C176.95 37.9 175.55 37.1 174.45 36C172.15 33.8 171.05 30.7 171.05 26.6V10.8H177.35V26.4C177.35 28.3 177.95 30.2 179.05 31.7ZM223.55 14.4C226.25 16.9 227.65 20.3 227.65 24.7C227.65 29.1 226.35 32.6 223.75 35.2C221.15 37.8 217.05 39 211.75 39H201.95V10.7H211.95C216.95 10.7 220.85 11.9 223.55 14.4ZM218.95 31.2C220.45 29.8 221.25 27.6 221.25 24.8C221.25 22 220.45 19.9 218.95 18.4C217.45 16.9 215.05 16.1 211.85 16.1H208.35V33.3H212.35C214.75 33.5 217.15 32.8 218.95 31.2ZM263.55 10.7H269.85V39H263.55L250.05 21.3V39H243.75V10.7H249.65L263.55 28.9V10.7ZM296.95 38.9L294.25 32.8H282.35L279.65 38.9H272.85L285.05 10.6H291.15L303.45 38.9H296.95ZM288.45 19.1L284.95 27.3H291.95L288.45 19.1ZM316.95 16.2V39H310.65V16.2H302.65V10.8H325.05V16.2H316.95ZM329.45 10.7H335.75V39H329.45C329.45 38.9 329.45 10.7 329.45 10.7ZM353.25 28.7L360.45 10.7H367.35L356.05 39H350.75L339.45 10.7H346.35L353.25 28.7ZM390.95 10.7V16.3H376.85V22.1H389.55V27.5H376.85V33.4H391.45V39H370.65V10.8L390.95 10.7ZM92.05 63C92.85 63 93.65 62.8 94.45 62.5C95.15 62.1 95.85 61.6 96.35 60.9L98.65 63.3C97.85 64.2 96.95 65 95.75 65.5C94.65 66 93.45 66.3 92.25 66.3C91.15 66.3 90.05 66.2 89.05 65.8C88.05 65.4 87.05 64.8 86.25 64C85.45 63.3 84.85 62.4 84.45 61.4C84.05 60.4 83.85 59.3 83.85 58.2C83.85 57.1 84.05 56 84.45 55C84.85 54 85.45 53.1 86.25 52.3C87.05 51.5 87.95 50.9 88.95 50.5C89.95 50.1 91.05 49.9 92.15 49.9C93.35 49.9 94.65 50.1 95.75 50.6C96.85 51.1 97.85 51.9 98.75 52.8L96.55 55.3C96.05 54.6 95.45 54.1 94.75 53.7C94.05 53.3 93.25 53.2 92.35 53.2C91.05 53.2 89.85 53.7 88.95 54.5C88.45 54.9 88.05 55.5 87.85 56.1C87.65 56.7 87.45 57.4 87.55 58C87.55 58.6 87.65 59.3 87.85 59.9C88.05 60.5 88.45 61.1 88.85 61.5C89.25 61.9 89.75 62.3 90.35 62.5C90.95 62.7 91.45 63 92.05 63ZM114.35 63.9C112.75 65.4 110.65 66.3 108.45 66.3C107.35 66.3 106.25 66.1 105.25 65.7C104.25 65.3 103.35 64.7 102.55 63.9C101.05 62.4 100.15 60.3 100.15 58.1C100.15 55.9 101.05 53.8 102.55 52.3C104.15 50.8 106.25 49.9 108.45 49.9C109.55 49.9 110.65 50.1 111.65 50.5C112.65 50.9 113.55 51.5 114.35 52.3C115.85 53.8 116.75 55.9 116.75 58.1C116.75 60.3 115.85 62.4 114.35 63.9ZM113.25 58.1C113.25 56.8 112.85 55.5 111.95 54.5C111.55 54 111.05 53.7 110.45 53.4C109.85 53.1 109.25 53 108.65 53C108.05 53 107.35 53.1 106.85 53.4C106.25 53.7 105.75 54.1 105.35 54.6C104.85 55.1 104.55 55.6 104.35 56.3C104.15 56.9 104.05 57.6 104.05 58.2C104.05 59.5 104.55 60.8 105.35 61.8C105.75 62.3 106.25 62.6 106.85 62.9C107.45 63.2 108.05 63.3 108.65 63.3C109.25 63.3 109.95 63.2 110.45 62.9C111.05 62.6 111.55 62.2 111.95 61.7C112.75 60.8 113.25 59.5 113.25 58.1ZM133.95 56.1L129.65 64.8H127.55L123.25 56.1V66.1H119.75V50.3H124.55L128.65 59L132.75 50.3H137.55V66.2H134.05L133.95 56.1ZM152.35 51.8C152.95 52.3 153.45 53 153.75 53.8C154.05 54.6 154.15 55.4 154.05 56.2C154.05 58.2 153.45 59.6 152.35 60.5C151.25 61.5 149.45 61.8 147.15 61.8H145.05V66.2H141.45V50.3H147.05C149.45 50.3 151.15 50.8 152.35 51.8ZM149.75 58C150.25 57.4 150.45 56.7 150.45 55.9C150.45 55.5 150.45 55.2 150.25 54.8C150.05 54.5 149.85 54.2 149.55 54C148.75 53.6 147.85 53.4 146.95 53.4H144.95V58.7H147.35C147.75 58.7 148.25 58.7 148.65 58.6C149.05 58.4 149.45 58.2 149.75 58ZM161.05 62C161.35 62.4 161.65 62.6 162.15 62.8C162.55 63 163.05 63.1 163.45 63.1C163.95 63.1 164.35 63 164.75 62.8C165.15 62.6 165.55 62.3 165.85 62C166.45 61.1 166.75 60 166.75 59V50.2H170.25V59C170.35 60 170.15 60.9 169.85 61.9C169.55 62.8 169.05 63.7 168.35 64.4C167.05 65.6 165.25 66.2 163.45 66.2C161.65 66.2 159.95 65.5 158.65 64.3C157.95 63.6 157.45 62.7 157.15 61.8C156.85 60.9 156.65 59.9 156.75 58.9V50.1H160.25V58.9C160.05 60 160.35 61.1 161.05 62ZM180.55 53.4V66.1H177.05V53.4H172.55V50.4H185.15V53.4C185.05 53.4 180.55 53.4 180.55 53.4ZM187.65 50.3H191.15V66.2H187.65V50.3ZM206.15 50.3H209.65V66.2H206.15L198.65 56.3V66.2H195.15V50.3H198.45L206.25 60.5L206.15 50.3ZM223.95 58.1H227.45V63.7C226.65 64.6 225.55 65.3 224.45 65.7C223.35 66.2 222.05 66.4 220.85 66.3C218.65 66.3 216.55 65.5 214.95 64C214.15 63.3 213.55 62.4 213.15 61.4C212.75 60.4 212.55 59.3 212.55 58.2C212.55 57.1 212.75 56 213.15 55C213.55 54 214.15 53.1 214.95 52.3C215.75 51.5 216.65 50.9 217.65 50.5C218.65 50.1 219.75 49.9 220.85 49.9C223.05 49.9 225.15 50.7 226.75 52.2L224.95 54.9C224.45 54.3 223.75 53.9 222.95 53.7C222.35 53.5 221.65 53.3 221.05 53.3C219.75 53.3 218.55 53.8 217.65 54.6C217.15 55.1 216.75 55.6 216.55 56.3C216.35 57 216.15 57.6 216.25 58.3C216.25 59.6 216.65 60.9 217.55 61.9C217.95 62.3 218.45 62.7 218.95 62.9C219.45 63.1 220.05 63.2 220.65 63.2C221.75 63.3 222.75 63 223.65 62.5V58H223.95V58.1ZM247.45 50.3V53.4H240.15V56.8H247.05V60H240.15V66.2H236.65V50.3C236.55 50.3 247.45 50.3 247.45 50.3ZM263.85 63.9C262.25 65.4 260.15 66.3 257.95 66.3C256.85 66.3 255.75 66.1 254.75 65.7C253.75 65.3 252.85 64.7 252.05 63.9C250.55 62.4 249.65 60.3 249.65 58.1C249.65 55.9 250.55 53.8 252.05 52.3C253.65 50.8 255.75 49.9 257.95 49.9C259.05 49.9 260.15 50.1 261.15 50.5C262.15 50.9 263.05 51.5 263.85 52.3C265.35 53.8 266.25 55.9 266.25 58.1C266.25 60.3 265.35 62.4 263.85 63.9ZM262.55 58.1C262.55 56.8 262.15 55.5 261.25 54.5C260.85 54 260.35 53.7 259.75 53.4C259.15 53.1 258.55 53 257.95 53C257.35 53 256.65 53.1 256.15 53.4C255.55 53.7 255.05 54.1 254.65 54.6C254.15 55.1 253.85 55.6 253.65 56.3C253.45 57 253.35 57.6 253.35 58.2C253.35 59.5 253.85 60.8 254.65 61.8C255.05 62.3 255.55 62.6 256.15 62.9C256.75 63.2 257.35 63.3 257.95 63.3C258.55 63.3 259.25 63.2 259.75 62.9C260.35 62.6 260.85 62.2 261.25 61.7C261.75 61.2 262.05 60.7 262.25 60C262.45 59.3 262.65 58.8 262.55 58.1ZM273.45 62C273.75 62.4 274.05 62.6 274.55 62.8C274.95 63 275.45 63.1 275.85 63.1C276.25 63.1 276.75 63 277.15 62.8C277.55 62.6 277.95 62.3 278.25 62C278.85 61.1 279.15 60 279.15 59V50.2H282.65V59C282.75 60 282.55 60.9 282.25 61.9C281.95 62.8 281.45 63.7 280.75 64.4C279.45 65.6 277.65 66.2 275.85 66.2C274.05 66.2 272.35 65.5 271.05 64.3C270.35 63.6 269.85 62.7 269.55 61.8C269.25 60.9 269.05 59.9 269.15 58.9V50.1H272.65V58.9C272.45 60 272.75 61.2 273.45 62ZM297.35 50.3H300.85V66.2H297.35L289.85 56.3V66.2H286.35V50.3H289.65L297.45 60.5L297.35 50.3ZM316.85 52.4C317.65 53.1 318.25 54.1 318.65 55.1C319.05 56.1 319.25 57.2 319.15 58.2C319.25 59.3 319.05 60.3 318.65 61.3C318.25 62.3 317.65 63.2 316.95 64C315.55 65.4 313.25 66.2 310.15 66.2H304.75V50.3H310.35C313.25 50.3 315.45 51 316.85 52.4ZM314.25 61.9C314.65 61.4 315.05 60.9 315.25 60.3C315.45 59.7 315.55 59 315.55 58.4C315.55 57.7 315.45 57.1 315.25 56.5C315.05 55.9 314.65 55.3 314.25 54.8C313.65 54.3 313.05 54 312.35 53.8C311.65 53.6 310.95 53.5 310.25 53.6H308.25V63.2H310.55C311.85 63.1 313.25 62.7 314.25 61.9ZM333.05 66.1L331.65 62.7H324.95L323.55 66.1H319.75L326.65 50.2H330.05L336.95 66.1H333.05ZM328.25 55L326.25 59.6H330.25L328.25 55ZM344.25 53.4V66.1H340.75V53.4H336.15V50.4H348.75V53.4H344.25ZM351.25 50.3H354.75V66.2H351.25V50.3ZM372.05 63.9C370.45 65.4 368.35 66.3 366.15 66.3C365.05 66.3 363.95 66.1 362.95 65.7C361.95 65.3 361.05 64.7 360.25 63.9C358.75 62.4 357.85 60.3 357.85 58.1C357.85 55.9 358.75 53.8 360.25 52.3C361.85 50.8 363.95 49.9 366.15 49.9C367.25 49.9 368.35 50.1 369.35 50.5C370.35 50.9 371.25 51.5 372.05 52.3C373.55 53.8 374.45 55.9 374.45 58.1C374.45 60.3 373.55 62.4 372.05 63.9ZM370.95 58.1C370.95 56.8 370.45 55.5 369.65 54.5C369.25 54 368.75 53.7 368.15 53.4C367.55 53.1 366.95 53 366.35 53C365.75 53 365.05 53.1 364.55 53.4C363.95 53.7 363.45 54.1 363.05 54.6C362.55 55.1 362.25 55.6 362.05 56.3C361.85 57 361.75 57.6 361.75 58.2C361.75 59.5 362.25 60.8 363.05 61.8C363.45 62.3 363.95 62.6 364.55 62.9C365.15 63.2 365.75 63.3 366.35 63.3C366.95 63.3 367.65 63.2 368.15 62.9C368.75 62.6 369.25 62.2 369.65 61.7C370.45 60.8 370.95 59.5 370.95 58.1ZM388.55 50.3H392.05V66.2H388.55L381.05 56.3V66.2H377.45V50.3H380.75L388.55 60.5C388.65 60.5 388.55 50.3 388.55 50.3Z" fill="white"/>
<path d="M16.65 47.3H7.95V67.6H28.25V58.9H16.65V47.3Z" fill="#0086FF"/>
<path d="M60.25 47.4V58.9H48.65V67.6H68.95V47.3L60.25 47.4Z" fill="#0086FF"/>
<path d="M7.95 27.1H16.75L16.65 27V15.5H28.25V6.8H7.95V27.1Z" fill="#0086FF"/>
<path d="M48.65 6.8V15.5H60.25V27.1H68.95V6.8C68.85 6.8 48.65 6.8 48.65 6.8Z" fill="#0086FF"/>
<path d="M47.45 27.1L35.85 15.5H48.55V6.8H28.25V15.5L39.85 27.1H47.45Z" fill="#93EAFF"/>
<path d="M37.05 47.3H29.45L39.05 56.9L40.95 58.9H28.25V67.6H48.65V58.8L42.85 53.1L37.05 47.3Z" fill="#93EAFF"/>
<path d="M60.25 27.1V39.7L58.25 37.7L48.65 28.1V35.8L54.35 41.5L60.15 47.3H68.95V27.1H60.25Z" fill="#93EAFF"/>
<path d="M28.25 38.6L16.75 27.1H7.95V47.3H16.65V34.7L28.25 46.3V38.6Z" fill="#93EAFF"/>
</svg>
