<svg width="19" height="19" viewBox="0 0 19 19" fill="none" xmlns="http://www.w3.org/2000/svg">
<path d="M4.16427 6.59471H0.277649V18.2724H4.16427V6.59471Z" fill="white"/>
<path d="M4.41961 2.98289C4.39439 1.8379 3.5756 0.965805 2.24601 0.965805C0.91642 0.965805 0.0471802 1.8379 0.0471802 2.98289C0.0471802 4.10416 0.890728 5.00137 2.19556 5.00137H2.2204C3.5756 5.00137 4.41961 4.10416 4.41961 2.98289Z" fill="white"/>
<path d="M18.1801 11.5756C18.1801 7.98871 16.2627 6.31932 13.7051 6.31932C11.6416 6.31932 10.7177 7.45276 10.2018 8.24789V6.59385H6.31476C6.36599 7.68962 6.31476 18.2715 6.31476 18.2715H10.2018V11.7497C10.2018 11.4007 10.2271 11.0526 10.3298 10.8027C10.6107 10.1055 11.2503 9.38358 12.3241 9.38358C13.731 9.38358 14.2935 10.4544 14.2935 12.0237V18.2712H18.1799L18.1801 11.5756Z" fill="white"/>
</svg>
