<svg width="177" height="71" viewBox="0 0 177 71" fill="none" xmlns="http://www.w3.org/2000/svg">
<path fill-rule="evenodd" clip-rule="evenodd" d="M14.76 37.2201C14.8923 35.9623 15.9802 35.0059 17.2786 35.0059H30.4293C31.7168 35.0059 32.7992 35.9467 32.9449 37.1924L34.6648 51.8956C36.627 54.9404 40.1357 55.7159 40.7667 55.7159C41.0968 55.7159 41.58 55.3156 42.0979 54.8867C42.696 54.3913 43.3404 53.8577 43.8486 53.8577C44.4756 53.8577 44.282 54.704 44.0176 55.3473C43.9711 55.4603 44.104 55.5827 44.2161 55.5289C44.7891 55.2541 45.8882 54.7964 46.4563 55.019C47.2465 55.3288 47.4711 57.8127 45.9941 59.251C43.6158 60.4091 37.8957 59.933 34.6054 57.8292C34.5027 58.1152 34.3823 58.3934 34.2457 58.6623C34.134 59.538 34.0318 60.2356 33.9682 60.4838C33.7393 61.3753 32.4913 64.5931 32.2803 65.0041C32.0693 65.415 30.8035 70.3462 30.8035 70.5518C30.8035 70.66 29.1895 70.6851 27.6448 70.7091C26.8421 70.7215 26.058 70.7337 25.5289 70.7571C25.5992 70.1408 25.9508 68.9079 26.7948 68.9079C27.6387 68.9079 27.9903 69.0449 28.0607 69.1134C27.7793 68.1546 27.0901 66.1547 26.5838 65.8259C26.4333 65.7282 26.1754 65.5492 25.864 65.333V65.333H25.8639C24.866 64.64 23.3187 63.5658 22.9971 63.5658C22.8916 63.5658 22.6674 63.553 22.3872 63.5369C21.5466 63.4887 20.2016 63.4117 20.0434 63.5658C19.8745 63.7302 19.1291 64.5931 18.7774 65.0041L17.5116 67.4697L16.8786 70.5518H11.815C12.3777 69.7984 13.6717 68.3739 14.3468 68.7026C15.0219 69.0313 14.9094 67.6067 14.7688 66.8533L13.2919 62.333L13.1728 57.9271C9.93642 60.2755 2.32246 60.2557 0.868829 58.8401C-0.608019 57.4018 0.0786193 55.3288 0.868851 55.019C1.36258 54.8255 2.25731 55.1459 2.85923 55.4135C3.04868 55.4977 3.27825 55.2868 3.21179 55.0946C3.00716 54.5027 2.92915 53.8577 3.47656 53.8577C3.98474 53.8577 4.62908 54.3913 5.22717 54.8867C5.74513 55.3156 6.22838 55.7159 6.55845 55.7159C7.26966 55.7159 11.6366 54.7307 13.3246 50.6214C13.3344 50.6089 13.3441 50.5964 13.3539 50.5842L14.76 37.2201Z" fill="url(#paint0_linear_966_38627)"/>
<path d="M20.4652 63.5649L18.5663 65.4142C18.2646 66.1061 17.5671 69.0137 17.0002 70.1399H16.1531C15.8236 70.1399 17.5835 66.0357 17.3005 65.2087C17.0896 64.5923 16.6675 64.3868 16.6675 64.3868L19.6212 63.5649H20.4652Z" fill="url(#paint1_linear_966_38627)" fill-opacity="0.27"/>
<path d="M24.4744 62.1275C21.2674 61.4701 17.3712 63.0178 16.457 64.3876C16.668 64.1821 21.0987 62.9494 23.2084 63.5658C24.8963 64.059 26.0216 65.1411 26.3732 65.6205L28.2721 69.1134C28.1313 68.9764 27.8079 68.7025 27.6391 68.7025C27.4703 68.7025 26.4435 68.9764 25.9512 69.1134L25.3183 70.3462L30.5928 70.1408L33.9685 60.4838L34.6015 57.6073L35.8674 58.2237L41.3529 59.6619L46.4165 59.0456L47.4714 56.7854L46.2056 54.9362L43.4628 55.7581L44.3067 54.1144L43.4628 53.9089L40.72 55.3471C36.6691 54.854 34.6718 51.9912 34.1795 50.6214L33.5466 44.4574L32.4917 34.595L21.9426 35.0059L23.9114 35.8908C24.3376 36.0824 24.5236 36.5774 24.37 37.0094C23.7906 38.6386 23.203 41.4649 23.8414 43.0191C24.2634 44.0464 24.826 45.2108 25.5293 45.8957C25.5293 45.8957 26.3732 46.7175 25.1073 47.1285C26.7916 48.5676 30.8038 50.2105 30.8038 50.2105C30.8038 50.2105 30.5928 52.5391 29.9599 53.7034C31.8588 55.5526 32.7025 58.2237 31.2258 61.1002C30.5928 62.333 28.483 62.9494 24.4744 62.1275Z" fill="url(#paint2_linear_966_38627)" fill-opacity="0.27"/>
<path fill-rule="evenodd" clip-rule="evenodd" d="M34.6187 54.5253C34.8516 54.5347 35.0325 54.7261 35.0228 54.9529C34.9175 57.418 34.8114 58.8318 34.5677 60.0969C34.3252 61.3568 33.9478 62.4591 33.3223 64.2863L33.3137 64.3118C33.1589 64.7637 32.9448 65.3709 32.7095 66.0381C32.1887 67.5147 31.5644 69.2847 31.2526 70.3136C31.1734 70.5751 30.927 70.7568 30.6444 70.7568H25.0526V70.3459C25.0526 69.2526 25.8218 68.612 26.6209 68.3801C26.9554 68.2832 27.3089 68.2515 27.6398 68.2859C26.8187 66.6677 25.8587 65.5935 24.8692 64.8948C23.693 64.0643 22.4481 63.7453 21.2858 63.6973C19.0225 63.6041 17.0923 64.5386 16.6813 64.7376C16.6666 64.7447 16.6537 64.7509 16.643 64.7561C16.4338 64.8562 16.1809 64.7724 16.0781 64.5687C15.9752 64.365 16.0614 64.1188 16.2705 64.0186C16.2818 64.0132 16.2956 64.0065 16.3118 63.9986C16.7394 63.7911 18.8356 62.7738 21.3215 62.8763C22.6215 62.9298 24.0332 63.2894 25.3646 64.2294C26.6948 65.1686 27.9175 66.668 28.8736 68.9582C28.9536 69.1497 28.8751 69.369 28.6904 69.4707C28.5058 69.5725 28.2724 69.5248 28.1451 69.3595C28.0703 69.2624 27.914 69.1658 27.6669 69.1199C27.4251 69.0751 27.1372 69.0879 26.8619 69.1679C26.4454 69.2886 26.1034 69.5416 25.964 69.9349H30.488C30.8176 68.872 31.422 67.1584 31.9219 65.7408C32.1541 65.0823 32.3639 64.4877 32.513 64.0519C33.1483 62.1959 33.5072 61.1452 33.7383 59.9454C33.9694 58.7449 34.0743 57.3848 34.1796 54.9188C34.1893 54.692 34.3859 54.5158 34.6187 54.5253Z" fill="#00105F"/>
<path fill-rule="evenodd" clip-rule="evenodd" d="M33.1254 44.2875L32.0718 35.2576L32.9103 35.1648L33.9665 44.2161L34.2738 49.138C34.3269 49.9871 34.4867 50.7911 34.9034 51.4574C35.8266 52.9333 37.1367 53.8641 38.3022 54.4271C38.8843 54.7083 39.4262 54.8956 39.8573 55.0121C40.2993 55.1314 40.5988 55.1694 40.7013 55.1694C40.7022 55.1693 40.7368 55.1672 40.8166 55.1299C40.894 55.0938 40.9889 55.0365 41.1028 54.9566C41.3005 54.8179 41.517 54.6386 41.7571 54.4398C41.7976 54.4063 41.8388 54.3722 41.8806 54.3377C42.1609 54.1064 42.4692 53.8576 42.7732 53.667C43.0662 53.4833 43.4194 53.3112 43.7832 53.3112C43.9371 53.3112 44.0923 53.3429 44.2315 53.4244C44.3728 53.5072 44.4695 53.6249 44.5301 53.7517C44.6427 53.9867 44.6352 54.258 44.6042 54.4756C44.5905 54.5715 44.5701 54.6702 44.5449 54.7692C44.5747 54.7573 44.6051 54.7454 44.6356 54.7336C44.9252 54.6221 45.2545 54.5152 45.5732 54.4576C45.8794 54.4024 46.2382 54.3807 46.5485 54.5023C46.8681 54.6275 47.121 54.902 47.2986 55.2053C47.4814 55.5178 47.6116 55.905 47.6604 56.3245C47.7586 57.1678 47.5309 58.1755 46.6893 58.995C46.218 59.4541 45.3714 59.7207 44.4259 59.8603C43.4543 60.0039 42.2832 60.0264 41.0686 59.9255C38.6569 59.7251 35.9712 59.0285 34.3037 57.7218L34.8328 57.0815C36.3085 58.2379 38.7957 58.9118 41.1404 59.1066C42.304 59.2033 43.4069 59.1796 44.2993 59.0477C45.2179 58.912 45.8255 58.674 46.0926 58.4139C46.7279 57.7952 46.8952 57.0473 46.8218 56.4171C46.7848 56.0997 46.6874 55.8208 46.5655 55.6124C46.4382 55.3951 46.3089 55.2943 46.2334 55.2647C46.1486 55.2314 45.9838 55.2194 45.727 55.2658C45.4826 55.3098 45.2094 55.3965 44.9459 55.4979C44.6844 55.5986 44.4445 55.7091 44.2692 55.7949C44.1819 55.8378 44.1114 55.874 44.0632 55.8993C44.0391 55.912 44.0207 55.9219 44.0085 55.9284L43.9952 55.9357L43.9922 55.9373L43.9918 55.9375L42.7901 56.603L43.4053 55.3974C43.555 55.1043 43.7221 54.6856 43.7683 54.3623C43.785 54.2456 43.781 54.1727 43.7744 54.1332C43.6634 54.1363 43.4859 54.1976 43.2301 54.358C42.9785 54.5158 42.7088 54.7315 42.4261 54.9648C42.3872 54.9969 42.3479 55.0295 42.3083 55.0622C42.0705 55.2592 41.8239 55.4636 41.5963 55.6233C41.4621 55.7175 41.3218 55.8055 41.1815 55.871C41.0449 55.9348 40.8793 55.9913 40.7013 55.9913C40.4853 55.9913 40.0996 55.9304 39.6318 55.804C39.1535 55.6748 38.5612 55.4696 37.9272 55.1633C36.6605 54.5514 35.21 53.5275 34.1827 51.8849C33.6615 51.0516 33.4878 50.0913 33.4314 49.1879L33.1254 44.2875ZM43.8107 54.1352C43.8107 54.1352 43.8105 54.1351 43.8101 54.135L43.8107 54.1352Z" fill="#00105F"/>
<path d="M6.54086 58.6345C2.82756 59.2919 1.33662 56.7852 1.05531 55.5524L0.422363 55.7579L1.05531 58.2235C1.5476 58.6345 2.95416 59.4974 4.64201 59.6617C6.32987 59.8261 10.9715 58.4974 13.0813 57.8126V54.936C12.8703 55.5524 11.1825 57.8126 6.54086 58.6345Z" fill="black" fill-opacity="0.27"/>
<path fill-rule="evenodd" clip-rule="evenodd" d="M14.5562 44.2875L15.6099 35.2576L14.7714 35.1648L13.7152 44.2161L13.4078 49.138C13.3548 49.9871 13.195 50.7911 12.7783 51.4574C11.8551 52.9333 10.545 53.8641 9.37948 54.4271C8.79734 54.7083 8.25553 54.8956 7.82427 55.0121C7.38242 55.1314 7.0829 55.1694 6.98036 55.1694C6.97946 55.1693 6.94488 55.1672 6.86507 55.1299C6.78777 55.0938 6.6928 55.0365 6.57885 54.9566C6.38126 54.8179 6.16474 54.6386 5.92459 54.4398C5.8841 54.4063 5.84293 54.3722 5.80107 54.3377C5.52074 54.1064 5.21247 53.8576 4.90848 53.667C4.61551 53.4833 4.26234 53.3112 3.89845 53.3112C3.74459 53.3112 3.58933 53.3429 3.45017 53.4244C3.30889 53.5072 3.21223 53.6249 3.15155 53.7517C3.03898 53.9867 3.04641 54.258 3.07751 54.4756C3.09121 54.5715 3.11162 54.6702 3.13685 54.7692C3.10692 54.7573 3.07664 54.7454 3.04604 54.7336C2.75651 54.6221 2.42719 54.5152 2.10848 54.4576C1.80227 54.4024 1.44347 54.3807 1.13322 54.5023C0.813602 54.6275 0.560712 54.902 0.38311 55.2053C0.200225 55.5178 0.070168 55.905 0.0213106 56.3245C-0.0769386 57.1678 0.150796 58.1755 0.992352 58.995C1.46368 59.4541 2.31024 59.7207 3.25576 59.8603C4.22741 60.0039 5.39854 60.0264 6.61305 59.9255C9.0248 59.7251 11.7105 59.0285 13.378 57.7218L12.8489 57.0815C11.3732 58.2379 8.88594 58.9118 6.54131 59.1066C5.37766 59.2033 4.27477 59.1796 3.38234 59.0477C2.46378 58.912 1.8562 58.674 1.5891 58.4139C0.953814 57.7952 0.786445 57.0473 0.859858 56.4171C0.896838 56.0997 0.994301 55.8208 1.11626 55.6124C1.24351 55.3951 1.37278 55.2943 1.44828 55.2647C1.53314 55.2314 1.69787 55.2194 1.95469 55.2658C2.19901 55.3098 2.47223 55.3965 2.73584 55.4979C2.99726 55.5986 3.23719 55.7091 3.4125 55.7949C3.49983 55.8378 3.57032 55.874 3.6185 55.8993C3.64256 55.912 3.66101 55.9219 3.67315 55.9284L3.68651 55.9357L3.68948 55.9373L3.68987 55.9375L4.89158 56.603L4.27633 55.3974C4.12672 55.1043 3.95958 54.6856 3.91338 54.3623C3.89671 54.2456 3.90064 54.1727 3.90731 54.1332C4.01826 54.1363 4.19586 54.1976 4.45161 54.358C4.70325 54.5158 4.97284 54.7315 5.25555 54.9648C5.29449 54.9969 5.33382 55.0295 5.37339 55.0622C5.61113 55.2592 5.85782 55.4636 6.08539 55.6233C6.21962 55.7175 6.35988 55.8055 6.5002 55.871C6.63679 55.9348 6.80243 55.9913 6.98036 55.9913C7.19635 55.9913 7.58205 55.9304 8.04987 55.804C8.52822 55.6748 9.12051 55.4696 9.75448 55.1633C11.0212 54.5514 12.4717 53.5275 13.499 51.8849C14.0202 51.0516 14.1939 50.0913 14.2503 49.1879L14.5562 44.2875ZM3.87096 54.1352C3.87095 54.1352 3.87113 54.1351 3.87153 54.135L3.87096 54.1352Z" fill="#00105F"/>
<path d="M12.1472 35.5679H33.0104H33.5816C34.0853 35.5679 34.4937 35.3044 34.4937 34.9795V0.851821C34.4937 0.364366 33.8708 -0.0343549 33.1173 0.00234682C14.2243 0.922643 8.79645 20.7979 8.11882 32.9255C8.03719 34.3869 9.88044 35.5679 12.1472 35.5679Z" fill="#F9F9F9"/>
<path fill-rule="evenodd" clip-rule="evenodd" d="M33.595 1.14309C33.595 0.815287 33.1852 0.565603 32.7222 0.588436C23.6956 1.03358 17.8 6.06528 14.0662 12.6249C10.3428 19.1663 8.84262 27.1113 8.50974 33.1435C8.43886 34.4275 10.0391 35.475 12.0294 35.475H33.1457C33.3939 35.475 33.595 35.3436 33.595 35.1815V1.14309ZM32.6545 0.00323194C33.6761 -0.0471458 34.4936 0.498531 34.4936 1.14309V35.1815C34.4936 35.6677 33.8901 36.0619 33.1457 36.0619H12.0294C9.55332 36.0619 7.52176 34.7535 7.61177 33.1224C7.94636 27.0586 9.45368 19.044 13.2239 12.4204C16.9839 5.81486 23.0683 0.475981 32.6545 0.00323194Z" fill="#808080"/>
<path fill-rule="evenodd" clip-rule="evenodd" d="M26.8054 4.07204C26.9431 4.19867 26.8947 4.37294 26.6974 4.46128C22.0161 6.55712 18.7028 10.4214 16.4431 14.8502C14.188 19.2703 13.0049 24.2076 12.5361 28.3928C12.5189 28.5468 12.3104 28.6627 12.0704 28.6515C11.8305 28.6405 11.6499 28.5067 11.6672 28.3527C12.1393 24.1374 13.3314 19.1523 15.6151 14.6762C17.8945 10.209 21.284 6.20314 26.1989 4.00269C26.3962 3.91436 26.6677 3.9454 26.8054 4.07204Z" fill="#8A8A8A"/>
<path d="M28.2587 30.1538C26.6184 32.9258 18.689 33.5374 13.6833 35.2292L13.4624 35.3785H34.2213L33.7797 0C31.3505 12.5392 30.4671 26.4219 28.2587 30.1538Z" fill="#E4E6E5"/>
<path d="M21.5207 52.6759C20.5079 52.1827 20.958 53.5662 21.3097 54.3196L19.8327 53.7031L18.5669 52.8813C18.8476 52.3344 19.1455 51.7521 19.7023 51.4697C19.9993 51.3192 20.3328 51.2375 20.6767 51.2375H20.8877L22.3645 51.8539L23.6304 52.6759L24.2634 53.2922H24.2633C23.8413 53.2922 22.7864 53.2922 21.5207 52.6759Z" fill="url(#paint3_linear_966_38627)" fill-opacity="0.27"/>
<path d="M8.94627 35.5681C10.9384 11.8601 21.3972 3.00985 26.3775 1.54827C25.3814 1.18539 23.0573 2.40506 22.0197 3.06026L18.0769 6.08424C14.9227 8.14055 11.5056 17.2226 10.1914 21.5065L8.11621 34.0561L8.94627 35.5681Z" fill="white"/>
<path fill-rule="evenodd" clip-rule="evenodd" d="M33.595 1.14309C33.595 0.815287 33.1852 0.565603 32.7222 0.588436C23.6956 1.03358 17.8 6.06528 14.0662 12.6249C10.3428 19.1663 8.84262 26.5862 8.50974 32.6184C8.43886 33.9024 10.0391 34.9499 12.0294 34.9499C12.0294 34.9499 32.8976 34.9499 33.1457 34.9499C33.3939 34.9499 33.595 34.8186 33.595 34.6565V1.14309ZM32.6545 0.00323194C33.6761 -0.0471458 34.4936 0.498531 34.4936 1.14309V35.1815C34.4936 35.6677 33.8901 36.0619 33.1457 36.0619H12.0294C9.55332 36.0619 7.52176 34.7535 7.61177 33.1224C7.94636 27.0586 9.45368 19.044 13.2239 12.4204C16.9839 5.81486 23.0683 0.475981 32.6545 0.00323194Z" fill="#8A8A8A"/>
<path d="M14.135 61.9221C13.7131 60.2783 13.4317 56.7169 13.2911 54.7307L12.8691 54.9362C13.0801 57.2648 13.5021 62.0042 13.5021 62.333C13.5021 62.6617 14.0647 64.6616 14.346 65.6204L14.9789 68.497H15.6118C16.1182 67.6751 14.6976 63.4973 14.135 61.9221Z" fill="url(#paint4_linear_966_38627)"/>
<path fill-rule="evenodd" clip-rule="evenodd" d="M13.1183 54.1162C13.3505 54.1368 13.5215 54.3366 13.5004 54.5626C13.4193 55.4314 13.4579 57.047 13.5784 58.719C13.6988 60.3889 13.8976 62.0695 14.125 63.066C14.263 63.6707 14.467 64.3195 14.6748 64.9805C14.7796 65.3139 14.8855 65.6505 14.9843 65.9861C15.1284 66.4754 15.2553 66.9576 15.3297 67.399C15.3816 67.7073 15.4109 68.0123 15.3962 68.2959C15.7092 68.4247 15.9884 68.6195 16.172 68.8828C16.3029 69.0706 16.2527 69.3261 16.0599 69.4536C15.8671 69.5811 15.6047 69.5322 15.4738 69.3445C15.3868 69.2197 15.2047 69.0872 14.9258 69.0025C14.6526 68.9195 14.318 68.893 13.9725 68.9512C13.4382 69.0411 12.8789 69.3324 12.4861 69.9355H16.7323C16.8049 68.9881 16.9849 67.6946 17.4953 66.4765C18.083 65.074 19.1259 63.7355 20.9716 63.1738C21.1941 63.1061 21.4307 63.2268 21.5002 63.4434C21.5697 63.66 21.4458 63.8906 21.2234 63.9582C19.6933 64.4239 18.8037 65.5292 18.2767 66.7869C17.7465 68.0524 17.6009 69.4353 17.5495 70.3685C17.5375 70.5865 17.3524 70.7574 17.1282 70.7574H11.8145C11.6769 70.7574 11.5479 70.692 11.469 70.5822C11.39 70.4724 11.3709 70.3321 11.4179 70.2061C11.8941 68.9306 12.8687 68.3029 13.8288 68.1413C14.0748 68.1 14.32 68.089 14.5557 68.1054C14.553 67.9397 14.5333 67.7485 14.4969 67.532C14.4305 67.1381 14.3143 66.6922 14.173 66.2126C14.0837 65.9092 13.9834 65.5898 13.8812 65.2645C13.6676 64.5846 13.4462 63.8796 13.3012 63.2442C13.0597 62.1861 12.8577 60.4558 12.7366 58.7766C12.6157 57.0995 12.5722 55.4276 12.6599 54.4883C12.681 54.2622 12.8863 54.0956 13.1183 54.1162Z" fill="#00105F"/>
<path d="M22.0561 40.3947C22.0561 42.7607 20.1761 44.6786 17.8571 44.6786C15.5381 44.6786 13.6582 42.7607 13.6582 40.3947C13.6582 38.0288 15.5381 36.1108 17.8571 36.1108C20.1761 36.1108 22.0561 38.0288 22.0561 40.3947Z" fill="white"/>
<path fill-rule="evenodd" clip-rule="evenodd" d="M17.8577 36.3169C15.6643 36.3169 13.8697 38.1338 13.8697 40.3954C13.8697 42.6569 15.6643 44.4738 17.8577 44.4738C20.051 44.4738 21.8456 42.6569 21.8456 40.3954C21.8456 38.1338 20.051 36.3169 17.8577 36.3169ZM13.4478 40.3954C13.4478 37.925 15.413 35.906 17.8577 35.906C20.3024 35.906 22.2676 37.925 22.2676 40.3954C22.2676 42.8657 20.3024 44.8848 17.8577 44.8848C15.413 44.8848 13.4478 42.8657 13.4478 40.3954Z" fill="#00105F"/>
<path d="M34.0523 40.5895C34.0523 43.063 32.1723 45.0681 29.8532 45.0681C27.5342 45.0681 25.6543 43.063 25.6543 40.5895C25.6543 38.116 27.5342 36.1108 29.8532 36.1108C32.1723 36.1108 34.0523 38.116 34.0523 40.5895Z" fill="white"/>
<path fill-rule="evenodd" clip-rule="evenodd" d="M29.8538 36.3169C27.6689 36.3169 25.8658 38.2121 25.8658 40.5901C25.8658 42.9681 27.6689 44.8633 29.8538 44.8633C32.0386 44.8633 33.8417 42.9681 33.8417 40.5901C33.8417 38.2121 32.0386 36.3169 29.8538 36.3169ZM25.4438 40.5901C25.4438 38.0211 27.4006 35.906 29.8538 35.906C32.307 35.906 34.2637 38.0211 34.2637 40.5901C34.2637 43.159 32.307 45.2742 29.8538 45.2742C27.4006 45.2742 25.4438 43.159 25.4438 40.5901Z" fill="#00105F"/>
<path d="M28.4545 46.4319C25.2553 48.457 19.5234 46.8863 17.0573 45.8478L14.8579 45.0688C14.7912 45.3934 14.6979 46.354 14.8579 47.6002C15.0178 48.8465 15.1985 49.9369 15.4577 50.9106C15.9242 52.663 18.177 56.207 23.4557 56.3628C27.5572 56.4838 29.832 53.7912 30.8614 51.5186C31.3772 50.3797 31.4538 49.1152 31.4538 47.8705V46.4319C30.8139 46.7435 29.1876 46.5618 28.4545 46.4319Z" fill="#00105F"/>
<path fill-rule="evenodd" clip-rule="evenodd" d="M14.6992 44.7937L17.1354 45.6564L17.1411 45.6588C18.3593 46.1718 20.3896 46.8181 22.508 47.0846C24.6344 47.3521 26.8041 47.2312 28.3396 46.2593L28.4098 46.2148L28.4923 46.2294C28.8512 46.293 29.4311 46.3695 29.9976 46.3918C30.2809 46.4029 30.5565 46.4003 30.7973 46.3768C31.0419 46.353 31.2335 46.3091 31.3594 46.2478L31.6648 46.0991V47.8701C31.6648 49.1184 31.5894 50.4203 31.0545 51.6012C30.007 53.9138 27.6715 56.6924 23.4494 56.5678C18.0568 56.4087 15.7381 52.7821 15.2535 50.9618C14.991 49.9755 14.8089 48.8749 14.6485 47.6254C14.4862 46.3602 14.5794 45.3772 14.651 45.0282L14.6992 44.7937ZM15.028 45.3474C14.9767 45.7769 14.9397 46.581 15.0673 47.5745C15.2268 48.8175 15.4061 49.8977 15.662 50.8587C16.1105 52.5433 18.2974 56.0046 23.4622 56.1571C27.4431 56.2746 29.6571 53.668 30.6684 51.4354C31.1652 50.3385 31.2428 49.1114 31.2428 47.8701V46.7209C31.1162 46.7514 30.9794 46.7721 30.8393 46.7857C30.5723 46.8117 30.2756 46.814 29.9806 46.8024C29.4322 46.7808 28.8751 46.7108 28.4987 46.6478C26.8409 47.66 24.5795 47.7595 22.454 47.4921C20.2935 47.2203 18.2279 46.5636 16.9794 46.0384L15.028 45.3474Z" fill="#00105F"/>
<path d="M17.2816 52.9816C17.082 53.2035 16.9191 53.3814 16.8574 53.4415C18.857 55.5834 20.4566 56.1676 23.6558 56.3623C26.8549 56.5571 29.1877 54.2853 30.0542 53.052L29.0153 52.1527C28.6201 51.8107 27.9956 51.9003 27.6431 52.284C26.73 53.2781 25.0791 54.4895 22.8559 54.6098C20.9862 54.711 19.746 53.9417 19.0149 53.1232C18.5844 52.6412 17.714 52.5011 17.2816 52.9816Z" fill="white"/>
<path fill-rule="evenodd" clip-rule="evenodd" d="M28.8756 52.3068C28.5835 52.054 28.091 52.1056 27.8008 52.4216C26.8647 53.4407 25.1654 54.6912 22.8681 54.8155C20.9247 54.9206 19.6241 54.1183 18.8561 53.2586C18.6784 53.0595 18.4033 52.9262 18.1261 52.8962C17.85 52.8663 17.6001 52.9405 17.4408 53.1176C17.3285 53.2423 17.2255 53.3558 17.1451 53.4426C18.079 54.4191 18.9219 55.0396 19.8903 55.4438C20.907 55.8681 22.0784 56.0609 23.6694 56.1578C26.6363 56.3384 28.8499 54.3163 29.7734 53.084L28.8756 52.3068ZM27.4863 52.1476C27.9011 51.696 28.6578 51.5684 29.1559 51.9997L30.3337 53.0192L30.2288 53.1685C29.346 54.425 26.9527 56.7694 23.6431 56.5679C22.0348 56.47 20.8067 56.2734 19.7241 55.8215C18.638 55.3682 17.7145 54.6651 16.7018 53.5802L16.5664 53.4353L16.7087 53.2967C16.7642 53.2426 16.9215 53.0711 17.1234 52.8467C17.3965 52.5433 17.7979 52.4473 18.1727 52.4878C18.5464 52.5282 18.9217 52.7059 19.1745 52.9888C19.8687 53.7662 21.0484 54.5024 22.8447 54.4052C24.9936 54.289 26.5962 53.1166 27.4863 52.1476Z" fill="#00105F"/>
<path d="M23.6553 49.5474C19.2564 49.3527 17.5901 47.4055 16.457 46.0424L16.657 45.8477L22.1336 47.1811C23.2661 47.4567 24.4486 47.4746 25.5893 47.233L28.4541 46.6266H29.6538L29.8537 46.8213C28.2541 49.158 24.655 49.5474 23.6553 49.5474Z" fill="white"/>
<path d="M23.6548 54.416C21.0954 54.8834 19.1226 53.5722 18.4561 52.8582C19.0043 51.1677 20.1369 50.9408 21.2246 51.2114C21.8468 51.1969 22.7394 51.7705 23.4499 52.3394C23.6744 52.5051 23.8205 52.6301 23.8547 52.6635C25.6143 49.3921 27.2539 50.7812 27.8538 51.8846C27.5205 52.5337 26.2142 53.9487 23.6548 54.416Z" fill="#EEAC57"/>
<path fill-rule="evenodd" clip-rule="evenodd" d="M27.3658 50.9278C27.653 51.1812 27.882 51.4953 28.041 51.7878L28.0919 51.8813L28.0433 51.9758C27.6789 52.6856 26.3151 54.1388 23.6946 54.6173C21.0436 55.1013 19.0014 53.7463 18.3008 52.9957L18.2192 52.9083L18.2557 52.7957C18.5417 51.9139 18.992 51.3802 19.5456 51.1144C20.0861 50.8548 20.687 50.869 21.2505 51.005C21.613 51.0056 22.0213 51.1656 22.4081 51.3767C22.8114 51.5968 23.2216 51.8895 23.5815 52.1775C23.6624 52.2372 23.7341 52.2924 23.7948 52.3404C24.6438 50.8615 25.5105 50.3418 26.3133 50.4286C26.7231 50.473 27.0789 50.6747 27.3658 50.9278ZM24.1131 52.6292C24.9554 51.1204 25.715 50.7774 26.2667 50.837C26.5617 50.869 26.8383 51.0169 27.0825 51.2324C27.2968 51.4213 27.4777 51.6552 27.6141 51.8849C27.2371 52.5145 25.9913 53.7798 23.6168 54.2134C21.2498 54.6456 19.402 53.4975 18.6969 52.8052C18.958 52.0702 19.3308 51.6758 19.7322 51.483C20.1583 51.2783 20.6569 51.2813 21.1732 51.4098C22.014 51.6192 22.8396 52.1461 23.32 52.5001C23.6525 52.7665 23.9438 53.0315 24.145 53.2308C24.2267 53.3118 24.3603 53.3129 24.4434 53.2334C24.5265 53.1539 24.5277 53.0238 24.446 52.9428C24.3517 52.8493 24.2393 52.7429 24.1131 52.6292Z" fill="#00105F"/>
<path fill-rule="evenodd" clip-rule="evenodd" d="M24.2957 41.17H23.0298V40.3481H24.2957V41.17Z" fill="#00105F"/>
<path d="M20.1876 32.4467C18.8912 31.8289 17.4067 32.6958 16.525 33.2905C16.0897 33.5841 15.9379 34.0719 16.3466 34.3998C16.7917 34.7568 17.3278 34.6271 17.5402 34.5175C18.066 34.0997 19.0066 33.9446 19.4111 33.9193C20.3142 33.7917 20.5905 33.4025 20.6203 33.0614C20.6437 32.7926 20.4364 32.5653 20.1876 32.4467Z" fill="#00105F"/>
<path d="M28.0526 31.9979C29.4339 31.2105 30.7951 32.2547 31.6292 33.0339C32.0906 33.4648 32.4643 34.1881 32.0883 34.6916C32.0283 34.7718 31.9563 34.8436 31.8699 34.8997C31.39 35.2113 30.7846 34.4453 30.5847 34.3155C30.1048 33.8482 29.1851 33.6016 28.7852 33.5367C27.8135 33.3001 27.6257 32.824 27.6792 32.4665C27.7097 32.2621 27.8695 32.1023 28.0526 31.9979Z" fill="#00105F"/>
<path fill-rule="evenodd" clip-rule="evenodd" d="M14.5409 44.5186L17.2138 45.4651L17.2253 45.4699C18.4285 45.9767 20.4398 46.6169 22.5355 46.8805C24.6471 47.1462 26.7539 47.0179 28.225 46.0868L28.3655 45.9977L28.5305 46.027C28.8818 46.0892 29.4518 46.1644 30.0066 46.1862C30.2839 46.1971 30.549 46.1943 30.7767 46.1721C31.012 46.1491 31.1736 46.1085 31.2655 46.0637L31.8762 45.7664V47.8698C31.8762 49.1216 31.8019 50.4609 31.248 51.6839C30.1823 54.0365 27.7861 56.9011 23.4434 56.7729C17.937 56.6104 15.5523 52.9012 15.0498 51.013C14.7877 50.0289 14.5412 48.9744 14.4376 47.6304C14.3986 47.1252 14.3817 46.5628 14.3829 46.085C14.384 45.6234 14.4018 45.1961 14.4446 44.9876L14.5409 44.5186ZM15.2344 45.6387C15.23 45.7692 15.2272 45.9201 15.2268 46.087C15.2256 46.5473 15.242 47.0882 15.2791 47.5688C15.3774 48.8429 15.6102 49.8437 15.8666 50.8068C16.2971 52.4237 18.418 55.8024 23.469 55.9514C27.3293 56.0654 29.4826 53.5448 30.4758 51.3522C30.9535 50.2974 31.0322 49.1077 31.0322 47.8698V46.9694C30.975 46.9776 30.9177 46.9843 30.8607 46.9899C30.5807 47.0171 30.2734 47.0192 29.9725 47.0074C29.4506 46.9869 28.9225 46.9235 28.5425 46.8629C26.8286 47.8748 24.539 47.9612 22.4274 47.6956C20.2475 47.4214 18.1659 46.7602 16.9019 46.2291L15.2344 45.6387Z" fill="#00105F"/>
<path fill-rule="evenodd" clip-rule="evenodd" d="M18.0921 39.1229C17.8745 39.1066 17.6555 39.1162 17.4401 39.1527C16.8268 39.2566 16.2857 39.5713 15.9186 40.0376C15.5516 40.5038 15.3839 41.0894 15.4472 41.6842C15.5104 42.279 15.8002 42.8421 16.262 43.2673C16.7238 43.6926 17.3258 43.9508 17.9547 43.9933C18.5836 44.0358 19.1961 43.8598 19.6768 43.4982C20.1576 43.1367 20.4735 42.6146 20.565 42.0303C20.6059 41.7699 20.6009 41.5052 20.5524 41.2462C20.2771 41.4364 19.9406 41.5481 19.5773 41.5481C19.3176 41.5481 19.0715 41.491 18.8518 41.3889C18.8458 41.4475 18.8447 41.5066 18.8472 41.5636C18.8492 41.6126 18.8466 41.6617 18.8389 41.7104C18.8093 41.8995 18.7071 42.0684 18.5516 42.1854C18.396 42.3024 18.1979 42.3593 17.9943 42.3455C17.7908 42.3318 17.5961 42.2483 17.4467 42.1107C17.2972 41.973 17.2035 41.7909 17.183 41.5984C17.1626 41.406 17.2168 41.2165 17.3355 41.0656C17.4543 40.9148 17.6294 40.8129 17.8278 40.7793C17.8888 40.769 17.9505 40.7653 18.0121 40.7681C18.0542 40.77 18.0973 40.7697 18.1402 40.7669C17.9812 40.5162 17.8894 40.2207 17.8894 39.9044C17.8894 39.6215 17.9628 39.3553 18.0921 39.1229Z" fill="#00105F"/>
<path fill-rule="evenodd" clip-rule="evenodd" d="M29.4861 39.1229C29.2686 39.1066 29.0495 39.1162 28.8341 39.1527C28.2208 39.2566 27.6797 39.5713 27.3127 40.0376C26.9457 40.5038 26.778 41.0894 26.8412 41.6842C26.9044 42.279 27.1942 42.8421 27.6561 43.2673C28.1179 43.6926 28.7199 43.9508 29.3488 43.9933C29.9776 44.0358 30.5901 43.8598 31.0709 43.4982C31.5516 43.1367 31.8675 42.6146 31.9591 42.0303C31.9999 41.7699 31.995 41.5052 31.9466 41.2462C31.6711 41.4364 31.3346 41.5481 30.9713 41.5481C30.7116 41.5481 30.4656 41.491 30.2458 41.3889C30.2398 41.4475 30.2388 41.5066 30.2412 41.5636C30.2433 41.6126 30.2406 41.6617 30.233 41.7104C30.2034 41.8995 30.1012 42.0684 29.9456 42.1854C29.7901 42.3024 29.5919 42.3593 29.3884 42.3455C29.185 42.3318 28.9901 42.2483 28.8407 42.1107C28.6913 41.973 28.5976 41.7909 28.5771 41.5984C28.5566 41.406 28.6109 41.2165 28.7296 41.0656C28.8484 40.9148 29.0235 40.8129 29.2219 40.7793C29.2828 40.769 29.3446 40.7653 29.4062 40.7681C29.4482 40.77 29.4913 40.7697 29.5342 40.7669C29.3753 40.5162 29.2835 40.2207 29.2835 39.9044C29.2835 39.6215 29.3569 39.3553 29.4861 39.1229Z" fill="#00105F"/>
<path d="M23.2553 40.3955C23.2553 43.4068 20.7488 45.8478 17.6567 45.8478C14.5647 45.8478 12.0581 43.4068 12.0581 40.3955C12.0581 37.3844 14.5647 34.9434 17.6567 34.9434C20.7488 34.9434 23.2553 37.3844 23.2553 40.3955Z" fill="url(#paint5_linear_966_38627)" fill-opacity="0.6"/>
<path fill-rule="evenodd" clip-rule="evenodd" d="M17.6573 35.3546C14.7983 35.3546 12.4806 37.6117 12.4806 40.3959C12.4806 43.1802 14.7983 45.4372 17.6573 45.4372C20.5162 45.4372 22.8339 43.1802 22.8339 40.3959C22.8339 37.6117 20.5162 35.3546 17.6573 35.3546ZM11.6367 40.3959C11.6367 37.1578 14.3322 34.5327 17.6573 34.5327C20.9823 34.5327 23.6779 37.1578 23.6779 40.3959C23.6779 43.6341 20.9823 46.2591 17.6573 46.2591C14.3322 46.2591 11.6367 43.6341 11.6367 40.3959Z" fill="#00105F"/>
<path d="M35.8921 40.9793C35.8921 44.098 33.2959 46.6263 30.0935 46.6263C26.8911 46.6263 24.2949 44.098 24.2949 40.9793C24.2949 37.8605 26.8911 35.3323 30.0935 35.3323C33.2959 35.3323 35.8921 37.8605 35.8921 40.9793Z" fill="url(#paint6_linear_966_38627)" fill-opacity="0.6"/>
<path fill-rule="evenodd" clip-rule="evenodd" d="M30.0936 35.7433C27.1242 35.7433 24.717 38.0875 24.717 40.9793C24.717 43.8711 27.1242 46.2154 30.0936 46.2154C33.063 46.2154 35.4702 43.8711 35.4702 40.9793C35.4702 38.0875 33.063 35.7433 30.0936 35.7433ZM23.873 40.9793C23.873 37.6336 26.6581 34.9214 30.0936 34.9214C33.5291 34.9214 36.3141 37.6336 36.3141 40.9793C36.3141 44.325 33.5291 47.0372 30.0936 47.0372C26.6581 47.0372 23.873 44.325 23.873 40.9793Z" fill="#00105F"/>
<path d="M68.9304 60.7994L63.1393 53.429L61.4596 55.234V60.7994H58V43.2507H61.4596V50.8217L68.429 43.2507H72.6908L65.4708 50.9471L73.1421 60.7994H68.9304Z" fill="#F9F9F9"/>
<path d="M78.3681 61C77.0478 61 75.9865 60.5571 75.1843 59.6713C74.382 58.7688 73.9809 57.5905 73.9809 56.1365V48.2897H77.3904V56.1866C77.3904 56.7382 77.5241 57.1894 77.7915 57.5404C78.0756 57.8747 78.4433 58.0418 78.8946 58.0418H80.3486C80.9001 58.0418 81.4015 57.8162 81.8528 57.3649C82.304 56.8969 82.6216 56.2869 82.8054 55.5348V48.2897H86.2149V60.7994H83.0561V59.195C82.6717 59.7298 82.1954 60.1643 81.6272 60.4986C81.0756 60.8329 80.5408 61 80.0227 61H78.3681Z" fill="#F9F9F9"/>
<path d="M95.1561 61C94.638 61 94.1116 60.8329 93.5768 60.4986C93.0419 60.1643 92.6074 59.7298 92.2731 59.195V60.7994H89.1144V43.2507H92.5238V49.2674C92.8581 48.9164 93.2676 48.6323 93.7522 48.415C94.2536 48.1978 94.73 48.0891 95.1812 48.0891H96.9361C97.9054 48.0891 98.7578 48.298 99.4932 48.7159C100.245 49.117 100.822 49.6936 101.223 50.4457C101.641 51.1978 101.85 52.0669 101.85 53.0529V55.9109C101.85 56.9136 101.641 57.7994 101.223 58.5682C100.805 59.337 100.22 59.9387 99.4681 60.3733C98.716 60.7911 97.8553 61 96.8859 61H95.1561ZM96.4848 58.0167C97.0698 58.0167 97.5378 57.7994 97.8887 57.3649C98.2564 56.9304 98.4403 56.3621 98.4403 55.6602V53.3036C98.4403 52.6351 98.2648 52.1003 97.9138 51.6992C97.5628 51.2813 97.1032 51.0724 96.535 51.0724H94.9807C94.3121 51.0724 93.7522 51.3064 93.301 51.7744C92.8497 52.2423 92.5907 52.8607 92.5238 53.6295V55.7855C92.6408 56.454 92.9082 56.9972 93.3261 57.415C93.7606 57.8162 94.2703 58.0167 94.8553 58.0167H96.4848Z" fill="#F9F9F9"/>
<path d="M109.108 61C108.055 61 107.119 60.8078 106.3 60.4234C105.498 60.0223 104.871 59.4708 104.42 58.7688C103.969 58.0501 103.743 57.2312 103.743 56.312V53.078C103.743 52.0919 103.969 51.2228 104.42 50.4708C104.871 49.7187 105.498 49.1337 106.3 48.7159C107.119 48.298 108.055 48.0891 109.108 48.0891H111.113C112.718 48.0891 114.005 48.5404 114.974 49.4429C115.943 50.3454 116.428 51.5487 116.428 53.0529V55.7103H107.152V56.312C107.152 56.8635 107.328 57.3064 107.679 57.6407C108.03 57.9749 108.506 58.1421 109.108 58.1421H111.063C111.648 58.1421 112.116 58.0167 112.467 57.766C112.835 57.4986 113.019 57.156 113.019 56.7382H116.378C116.378 57.5738 116.152 58.3175 115.701 58.9694C115.25 59.6212 114.615 60.1226 113.796 60.4735C112.994 60.8245 112.066 61 111.013 61H109.108ZM113.069 53.2535V53.0529C113.069 52.4011 112.893 51.883 112.542 51.4986C112.191 51.0975 111.723 50.8969 111.138 50.8969H109.108C108.506 50.8969 108.021 51.1058 107.654 51.5237C107.286 51.9415 107.102 52.493 107.102 53.1783V53.2535H113.069Z" fill="#F9F9F9"/>
<path d="M124.103 61C122.264 61 120.827 60.4903 119.791 59.4708C118.754 58.4345 118.236 56.9972 118.236 55.1588H121.646C121.646 56.0279 121.863 56.7131 122.298 57.2145C122.749 57.6992 123.367 57.9415 124.153 57.9415H126.935C127.671 57.9415 128.264 57.7911 128.715 57.4903C129.183 57.1727 129.417 56.7549 129.417 56.2368V55.3844C129.417 54.5655 128.816 54.0557 127.612 53.8552L122.999 53.078C121.495 52.8273 120.35 52.351 119.565 51.649C118.796 50.9304 118.412 50.0195 118.412 48.9164V47.5125C118.412 46.6267 118.646 45.8496 119.114 45.1811C119.598 44.4958 120.275 43.9694 121.144 43.6017C122.03 43.234 123.05 43.0501 124.203 43.0501H127.036C128.122 43.0501 129.083 43.2758 129.919 43.727C130.754 44.1783 131.398 44.8134 131.849 45.6323C132.317 46.4345 132.551 47.3705 132.551 48.4401H129.142C129.142 47.7382 128.949 47.1783 128.565 46.7604C128.181 46.3259 127.671 46.1086 127.036 46.1086H124.203C123.501 46.1086 122.933 46.2591 122.498 46.5599C122.08 46.8607 121.871 47.2618 121.871 47.7632V48.4401C121.871 49.2758 122.448 49.7939 123.601 49.9944L128.189 50.7967C129.71 51.0641 130.871 51.5404 131.674 52.2256C132.476 52.8942 132.877 53.7632 132.877 54.8329V56.4875C132.877 57.3733 132.626 58.1588 132.125 58.844C131.64 59.5292 130.955 60.0641 130.069 60.4485C129.183 60.8162 128.155 61 126.986 61H124.103Z" fill="#F9F9F9"/>
<path d="M139.502 60.7994C138.014 60.7994 136.919 60.4902 136.217 59.8719C135.532 59.2368 135.19 58.2591 135.19 56.9387V43.2507H138.599V56.7382C138.599 57.1393 138.691 57.4318 138.875 57.6156C139.059 57.7994 139.351 57.8914 139.752 57.8914H141.106V60.7994H139.502Z" fill="#F9F9F9"/>
<path d="M144.764 47.1114C144.112 47.1114 143.585 46.9276 143.184 46.5599C142.8 46.1755 142.608 45.6741 142.608 45.0557C142.608 44.4373 142.8 43.9443 143.184 43.5766C143.585 43.1922 144.112 43 144.764 43C145.415 43 145.934 43.1922 146.318 43.5766C146.719 43.9443 146.92 44.4373 146.92 45.0557C146.92 45.6741 146.719 46.1755 146.318 46.5599C145.934 46.9276 145.415 47.1114 144.764 47.1114ZM143.059 48.2897H146.468V60.7994H143.059V48.2897Z" fill="#F9F9F9"/>
<path d="M154.668 61C153.615 61 152.679 60.7911 151.861 60.3733C151.058 59.9554 150.432 59.3705 149.98 58.6184C149.546 57.8663 149.328 56.9972 149.328 56.0111V53.078C149.328 52.0919 149.546 51.2228 149.98 50.4708C150.432 49.7187 151.058 49.1337 151.861 48.7159C152.663 48.298 153.59 48.0891 154.643 48.0891H156.624C157.627 48.0891 158.512 48.2897 159.281 48.6908C160.05 49.0919 160.643 49.6602 161.061 50.3955C161.479 51.1142 161.688 51.9499 161.688 52.9025H158.303C158.303 52.3343 158.145 51.883 157.827 51.5487C157.526 51.1978 157.125 51.0223 156.624 51.0223H154.693C154.108 51.0223 153.632 51.2396 153.264 51.6741C152.913 52.0919 152.738 52.6435 152.738 53.3287V55.7604C152.738 56.4457 152.922 57.0056 153.289 57.4401C153.657 57.8579 154.134 58.0669 154.718 58.0669H156.649C157.184 58.0669 157.61 57.8747 157.927 57.4903C158.262 57.1058 158.429 56.5961 158.429 55.961H161.813C161.813 57.4819 161.337 58.7019 160.384 59.6212C159.448 60.5404 158.203 61 156.649 61H154.668Z" fill="#F9F9F9"/>
<path d="M168.722 61C167.669 61 166.733 60.8078 165.914 60.4234C165.112 60.0223 164.485 59.4708 164.034 58.7688C163.582 58.0501 163.357 57.2312 163.357 56.312V53.078C163.357 52.0919 163.582 51.2228 164.034 50.4708C164.485 49.7187 165.112 49.1337 165.914 48.7159C166.733 48.298 167.669 48.0891 168.722 48.0891H170.727C172.332 48.0891 173.619 48.5404 174.588 49.4429C175.557 50.3454 176.042 51.5487 176.042 53.0529V55.7103H166.766V56.312C166.766 56.8635 166.942 57.3064 167.293 57.6407C167.644 57.9749 168.12 58.1421 168.722 58.1421H170.677C171.262 58.1421 171.73 58.0167 172.081 57.766C172.449 57.4986 172.632 57.156 172.632 56.7382H175.992C175.992 57.5738 175.766 58.3175 175.315 58.9694C174.864 59.6212 174.229 60.1226 173.41 60.4735C172.607 60.8245 171.68 61 170.627 61H168.722ZM172.683 53.2535V53.0529C172.683 52.4011 172.507 51.883 172.156 51.4986C171.805 51.0975 171.337 50.8969 170.752 50.8969H168.722C168.12 50.8969 167.635 51.1058 167.268 51.5237C166.9 51.9415 166.716 52.493 166.716 53.1783V53.2535H172.683Z" fill="#F9F9F9"/>
<rect x="58" y="14" width="100.405" height="22" rx="4" fill="#2BBAFE"/>
<path d="M73.5286 29.4626C72.8326 29.4626 72.2159 29.3172 71.6784 29.0264C71.1498 28.7269 70.7357 28.3128 70.4361 27.7841C70.1454 27.2467 70 26.6256 70 25.9207V23.5419C70 22.837 70.1454 22.2203 70.4361 21.6916C70.7357 21.1542 71.1498 20.7401 71.6784 20.4493C72.2159 20.1498 72.8326 20 73.5286 20H74.9295C75.6256 20 76.2379 20.1498 76.7665 20.4493C77.304 20.7401 77.7181 21.1542 78.0088 21.6916C78.3084 22.2203 78.4581 22.837 78.4581 23.5419V25.9207C78.4581 26.6256 78.3084 27.2467 78.0088 27.7841C77.7181 28.3128 77.304 28.7269 76.7665 29.0264C76.2379 29.3172 75.6256 29.4626 74.9295 29.4626H73.5286ZM74.9295 27.8502C75.4405 27.8502 75.8502 27.6652 76.1586 27.2952C76.4758 26.9251 76.6344 26.4405 76.6344 25.8414V23.6211C76.6344 23.022 76.4758 22.5374 76.1586 22.1674C75.8502 21.7974 75.4405 21.6123 74.9295 21.6123H73.5286C73.0176 21.6123 72.6035 21.7974 72.2863 22.1674C71.978 22.5374 71.8238 23.022 71.8238 23.6211V25.8414C71.8238 26.4405 71.978 26.9251 72.2863 27.2952C72.6035 27.6652 73.0176 27.8502 73.5286 27.8502H74.9295Z" fill="white"/>
<path d="M79.7749 22.7621H81.4401V23.4758C81.6251 23.2291 81.8586 23.0308 82.1405 22.8811C82.4313 22.7313 82.7132 22.6564 82.9863 22.6564H83.8189C84.3476 22.6564 84.8145 22.7665 85.2198 22.9868C85.6251 23.1982 85.9379 23.4978 86.1581 23.8855C86.3784 24.2731 86.4885 24.7181 86.4885 25.2203V26.7004C86.4885 27.2467 86.3784 27.7313 86.1581 28.1542C85.9379 28.5683 85.6295 28.8899 85.233 29.1189C84.8366 29.348 84.3784 29.4626 83.8586 29.4626H82.9996C82.7529 29.4626 82.4974 29.4053 82.233 29.2907C81.9775 29.1762 81.7573 29.022 81.5722 28.8282V32H79.7749V22.7621ZM83.6207 27.9163C83.9467 27.9163 84.2066 27.793 84.4004 27.5463C84.5943 27.2996 84.6912 26.9736 84.6912 26.5683V25.3524C84.6912 25.0088 84.5899 24.7313 84.3872 24.5198C84.1934 24.3084 83.9335 24.2026 83.6075 24.2026H82.8013C82.5458 24.2026 82.3035 24.3084 82.0744 24.5198C81.8454 24.7225 81.678 24.9868 81.5722 25.3128V26.6211C81.6163 27.0088 81.7485 27.3216 81.9687 27.5595C82.1978 27.7974 82.4753 27.9163 82.8013 27.9163H83.6207Z" fill="white"/>
<path d="M90.3147 29.4626C89.7597 29.4626 89.2663 29.3612 88.8346 29.1586C88.4117 28.9471 88.0813 28.6564 87.8434 28.2863C87.6055 27.9075 87.4865 27.4758 87.4865 26.9912V25.2863C87.4865 24.7665 87.6055 24.3084 87.8434 23.9119C88.0813 23.5154 88.4117 23.207 88.8346 22.9868C89.2663 22.7665 89.7597 22.6564 90.3147 22.6564H91.372C92.2178 22.6564 92.8962 22.8943 93.4072 23.37C93.9183 23.8458 94.1738 24.4802 94.1738 25.2731V26.674H89.2839V26.9912C89.2839 27.2819 89.3764 27.5154 89.5614 27.6916C89.7465 27.8678 89.9976 27.9559 90.3147 27.9559H91.3456C91.6539 27.9559 91.9006 27.8899 92.0857 27.7577C92.2795 27.6167 92.3764 27.4361 92.3764 27.2159H94.1473C94.1473 27.6564 94.0284 28.0485 93.7905 28.3921C93.5526 28.7357 93.2178 29 92.7861 29.185C92.3632 29.37 91.8742 29.4626 91.3191 29.4626H90.3147ZM92.4028 25.3789V25.2731C92.4028 24.9295 92.3103 24.6564 92.1253 24.4537C91.9403 24.2423 91.6936 24.1366 91.3852 24.1366H90.3147C89.9976 24.1366 89.742 24.2467 89.5482 24.467C89.3544 24.6872 89.2575 24.978 89.2575 25.3392V25.3789H92.4028Z" fill="white"/>
<path d="M95.3913 22.7621H97.0565V23.5551C97.2503 23.2819 97.5014 23.0661 97.8098 22.9075C98.1182 22.7401 98.4265 22.6564 98.7349 22.6564H99.5278C100.233 22.6564 100.797 22.8767 101.219 23.3172C101.651 23.7577 101.867 24.3392 101.867 25.0617V29.3568H100.07V25.1278C100.07 24.8546 99.9948 24.6344 99.845 24.467C99.7041 24.2996 99.519 24.2159 99.29 24.2159H98.497C98.1886 24.2159 97.9111 24.3304 97.6644 24.5595C97.4265 24.7797 97.2679 25.0705 97.1886 25.4317V29.3568H95.3913V22.7621Z" fill="white"/>
<path d="M106.144 29.4626C105.175 29.4626 104.417 29.1938 103.871 28.6564C103.324 28.1101 103.051 27.3524 103.051 26.3833H104.849C104.849 26.8414 104.963 27.2026 105.192 27.467C105.43 27.7225 105.756 27.8502 106.17 27.8502H107.637C108.025 27.8502 108.338 27.7709 108.576 27.6123C108.822 27.4449 108.946 27.2247 108.946 26.9515V26.5022C108.946 26.0705 108.628 25.8018 107.994 25.696L105.562 25.2863C104.769 25.1542 104.166 24.9031 103.752 24.533C103.346 24.1542 103.144 23.674 103.144 23.0925V22.3524C103.144 21.8855 103.267 21.4758 103.514 21.1233C103.769 20.7621 104.126 20.4846 104.584 20.2907C105.051 20.0969 105.589 20 106.197 20H107.69C108.263 20 108.769 20.1189 109.21 20.3568C109.65 20.5947 109.99 20.9295 110.228 21.3612C110.474 21.7841 110.598 22.2775 110.598 22.8414H108.8C108.8 22.4714 108.699 22.1762 108.496 21.9559C108.294 21.7269 108.025 21.6123 107.69 21.6123H106.197C105.827 21.6123 105.527 21.6916 105.298 21.8502C105.078 22.0088 104.968 22.2203 104.968 22.4846V22.8414C104.968 23.2819 105.272 23.5551 105.88 23.6608L108.298 24.0837C109.1 24.2247 109.712 24.4758 110.135 24.837C110.558 25.1894 110.769 25.6476 110.769 26.2115V27.0837C110.769 27.5507 110.637 27.9648 110.373 28.326C110.117 28.6872 109.756 28.9692 109.289 29.1718C108.822 29.3656 108.28 29.4626 107.664 29.4626H106.144Z" fill="white"/>
<path d="M114.539 29.4626C113.984 29.4626 113.491 29.3568 113.059 29.1454C112.636 28.9251 112.306 28.6167 112.068 28.2203C111.839 27.8238 111.724 27.3656 111.724 26.8458V25.2996C111.724 24.7797 111.843 24.3216 112.081 23.9251C112.319 23.5198 112.649 23.207 113.072 22.9868C113.504 22.7665 113.997 22.6564 114.552 22.6564H115.742C116.297 22.6564 116.786 22.7665 117.209 22.9868C117.641 23.207 117.975 23.5198 118.213 23.9251C118.451 24.3216 118.57 24.7797 118.57 25.2996V26.8458C118.57 27.3656 118.451 27.8238 118.213 28.2203C117.975 28.6167 117.641 28.9251 117.209 29.1454C116.786 29.3568 116.293 29.4626 115.729 29.4626H114.539ZM115.702 27.9163C116.028 27.9163 116.288 27.8062 116.482 27.5859C116.676 27.3568 116.773 27.0617 116.773 26.7004V25.4185C116.773 25.0573 116.676 24.7665 116.482 24.5463C116.288 24.3172 116.033 24.2026 115.715 24.2026H114.579C114.262 24.2026 114.006 24.3172 113.812 24.5463C113.618 24.7665 113.522 25.0573 113.522 25.4185V26.7004C113.522 27.0617 113.618 27.3568 113.812 27.5859C114.006 27.8062 114.257 27.9163 114.566 27.9163H115.702Z" fill="white"/>
<path d="M122.069 29.4626C121.373 29.4626 120.813 29.2291 120.391 28.7621C119.968 28.2863 119.756 27.6652 119.756 26.8987V22.7621H121.554V26.9251C121.554 27.2159 121.624 27.4537 121.765 27.6388C121.915 27.815 122.109 27.9031 122.346 27.9031H123.113C123.404 27.9031 123.668 27.7841 123.906 27.5463C124.144 27.2996 124.311 26.978 124.408 26.5815V22.7621H126.205V29.3568H124.54V28.511C124.338 28.793 124.087 29.022 123.787 29.1982C123.496 29.3744 123.214 29.4626 122.941 29.4626H122.069Z" fill="white"/>
<path d="M127.734 22.7621H129.399V23.6079C129.567 23.3524 129.804 23.1454 130.113 22.9868C130.43 22.8194 130.76 22.7357 131.104 22.7357H132.003V24.2952H131.104C130.637 24.2952 130.258 24.4361 129.967 24.7181C129.677 25 129.531 25.3612 129.531 25.8018V29.3568H127.734V22.7621Z" fill="white"/>
<path d="M135.137 29.4626C134.582 29.4626 134.089 29.3524 133.657 29.1322C133.234 28.9119 132.904 28.6035 132.666 28.207C132.437 27.8106 132.322 27.3524 132.322 26.8326V25.2863C132.322 24.7665 132.437 24.3084 132.666 23.9119C132.904 23.5154 133.234 23.207 133.657 22.9868C134.08 22.7665 134.569 22.6564 135.124 22.6564H136.168C136.697 22.6564 137.164 22.7621 137.569 22.9736C137.974 23.185 138.287 23.4846 138.507 23.8722C138.728 24.2511 138.838 24.6916 138.838 25.1938H137.054C137.054 24.8943 136.97 24.6564 136.803 24.4802C136.644 24.2952 136.433 24.2026 136.168 24.2026H135.151C134.842 24.2026 134.591 24.3172 134.397 24.5463C134.212 24.7665 134.12 25.0573 134.12 25.4185V26.7004C134.12 27.0617 134.217 27.3568 134.41 27.5859C134.604 27.8062 134.855 27.9163 135.164 27.9163H136.181C136.463 27.9163 136.688 27.815 136.855 27.6123C137.032 27.4097 137.12 27.141 137.12 26.8062H138.904C138.904 27.6079 138.653 28.2511 138.151 28.7357C137.657 29.2203 137.001 29.4626 136.181 29.4626H135.137Z" fill="white"/>
<path d="M142.546 29.4626C141.991 29.4626 141.497 29.3612 141.066 29.1586C140.643 28.9471 140.312 28.6564 140.074 28.2863C139.837 27.9075 139.718 27.4758 139.718 26.9912V25.2863C139.718 24.7665 139.837 24.3084 140.074 23.9119C140.312 23.5154 140.643 23.207 141.066 22.9868C141.497 22.7665 141.991 22.6564 142.546 22.6564H143.603C144.449 22.6564 145.127 22.8943 145.638 23.37C146.149 23.8458 146.405 24.4802 146.405 25.2731V26.674H141.515V26.9912C141.515 27.2819 141.607 27.5154 141.792 27.6916C141.977 27.8678 142.229 27.9559 142.546 27.9559H143.577C143.885 27.9559 144.132 27.8899 144.317 27.7577C144.511 27.6167 144.607 27.4361 144.607 27.2159H146.378C146.378 27.6564 146.259 28.0485 146.022 28.3921C145.784 28.7357 145.449 29 145.017 29.185C144.594 29.37 144.105 29.4626 143.55 29.4626H142.546ZM144.634 25.3789V25.2731C144.634 24.9295 144.541 24.6564 144.356 24.4537C144.171 24.2423 143.925 24.1366 143.616 24.1366H142.546C142.229 24.1366 141.973 24.2467 141.779 24.467C141.585 24.6872 141.489 24.978 141.489 25.3392V25.3789H144.634Z" fill="white"/>
<defs>
<linearGradient id="paint0_linear_966_38627" x1="13.7157" y1="70.7572" x2="32.0771" y2="36.5677" gradientUnits="userSpaceOnUse">
<stop stop-color="#2C2AD2"/>
<stop offset="0.421114" stop-color="#2BBAFE"/>
</linearGradient>
<linearGradient id="paint1_linear_966_38627" x1="18.2885" y1="63.5649" x2="18.2885" y2="70.1399" gradientUnits="userSpaceOnUse">
<stop/>
<stop offset="1" stop-opacity="0"/>
</linearGradient>
<linearGradient id="paint2_linear_966_38627" x1="31.9643" y1="34.595" x2="31.9643" y2="70.3462" gradientUnits="userSpaceOnUse">
<stop/>
<stop offset="1" stop-opacity="0"/>
</linearGradient>
<linearGradient id="paint3_linear_966_38627" x1="22.681" y1="50.4157" x2="22.681" y2="54.3196" gradientUnits="userSpaceOnUse">
<stop/>
<stop offset="1" stop-opacity="0"/>
</linearGradient>
<linearGradient id="paint4_linear_966_38627" x1="14.31" y1="54.7307" x2="14.31" y2="68.497" gradientUnits="userSpaceOnUse">
<stop stop-color="white"/>
<stop offset="1" stop-color="white" stop-opacity="0"/>
</linearGradient>
<linearGradient id="paint5_linear_966_38627" x1="17.6567" y1="34.9434" x2="17.6567" y2="45.8478" gradientUnits="userSpaceOnUse">
<stop stop-color="#2CB0FB" stop-opacity="0.54"/>
<stop offset="1" stop-color="#2C4ADC" stop-opacity="0.49"/>
</linearGradient>
<linearGradient id="paint6_linear_966_38627" x1="30.0935" y1="35.3323" x2="30.0935" y2="46.6263" gradientUnits="userSpaceOnUse">
<stop stop-color="#2CB0FB" stop-opacity="0.54"/>
<stop offset="1" stop-color="#2C4ADC" stop-opacity="0.49"/>
</linearGradient>
</defs>
</svg>
