<svg width="249" height="54" viewBox="0 0 249 54" fill="none" xmlns="http://www.w3.org/2000/svg">
<g clip-path="url(#clip0_5636_191)">
<path d="M11.2482 11.9156L32.5925 24.7918L52.7233 12.18L31.1501 0L11.2482 11.9156Z" fill="url(#paint0_linear_5636_191)"/>
<path d="M54.4647 33.8871V40.7528L33.2874 53.9463V46.7635L54.4647 33.8871Z" fill="url(#paint1_linear_5636_191)"/>
<path d="M10.9404 14.119L11.2482 21.8395L31.2646 33.9578V26.3783L10.9404 14.119Z" fill="url(#paint2_linear_5636_191)"/>
<path d="M0 32.1509L0.307808 39.8714L19.4711 51.7341V44.1546L0 32.1509Z" fill="url(#paint3_linear_5636_191)"/>
<path d="M53.6468 14.2864L53.339 22.4739L33.3224 34.8303V26.5545L53.6468 14.2864Z" fill="url(#paint4_linear_5636_191)"/>
<path d="M11.0108 24.1396L0.721191 30.1857L20.7112 42.8064L30.9832 36.3724L11.0108 24.1396Z" fill="url(#paint5_linear_5636_191)"/>
<path d="M53.4973 31.6575L48.2731 28.3966L44.1837 30.785V37.4919L53.4973 31.6575Z" fill="#60A5D4"/>
<path d="M31.0183 53.3735L31.1328 48.2969L26.7882 50.7823L31.0183 53.3735Z" fill="url(#paint6_linear_5636_191)"/>
<path d="M41.9149 32.0276V38.8668L22.0567 51.2495L22.0128 44.1723L41.9149 32.0276Z" fill="url(#paint7_linear_5636_191)"/>
<path d="M83.4075 23.179L91.5601 12.5501H99.818L89.6165 24.7565L100.768 38.3291H92.1051L83.4075 27.1538V38.3291H76.7236V12.5501H83.4075V23.179Z" fill="#6291C8"/>
<path d="M108.278 20.7905V30.6701C108.278 32.8383 109.325 33.9136 111.418 33.9136C113.511 33.9136 114.558 32.8296 114.558 30.6701V20.7905H120.732V31.8687C120.732 34.2397 119.949 36.0199 118.392 37.201C116.836 38.3818 114.505 38.9811 111.418 38.9811C108.331 38.9811 106.001 38.3908 104.444 37.201C102.887 36.0199 102.105 34.2397 102.105 31.8687V20.7905H108.278Z" fill="#6291C8"/>
<path d="M131.091 9.95026V22.5269C132.543 21.0022 134.363 20.2354 136.544 20.2354C137.837 20.2354 139.024 20.4822 140.106 20.9669C141.188 21.4516 142.102 22.1214 142.867 22.9499C143.633 23.7783 144.222 24.7654 144.662 25.8935C145.092 27.0217 145.312 28.2203 145.312 29.498C145.312 30.776 145.092 32.0188 144.644 33.1557C144.204 34.2927 143.58 35.2885 142.788 36.1258C141.997 36.963 141.056 37.6327 139.974 38.1264C138.892 38.6111 137.732 38.8578 136.483 38.8578C134.205 38.8578 132.411 38.0295 131.091 36.3637V38.3114H124.918V9.95026H131.091ZM138.866 29.6039C138.866 29.0576 138.76 28.5374 138.558 28.044C138.356 27.5593 138.066 27.1273 137.705 26.766C137.345 26.4047 136.922 26.1139 136.439 25.8935C135.964 25.6732 135.436 25.5675 134.873 25.5675C134.31 25.5675 133.818 25.6732 133.334 25.8759C132.85 26.0786 132.437 26.3695 132.085 26.7308C131.734 27.0921 131.452 27.5239 131.232 28.0088C131.012 28.4935 130.907 29.0134 130.907 29.56C130.907 30.1063 131.012 30.6175 131.215 31.1022C131.417 31.5781 131.707 32.0011 132.068 32.345C132.428 32.6973 132.859 32.9795 133.343 33.1997C133.836 33.4202 134.346 33.5258 134.891 33.5258C135.436 33.5258 135.946 33.4202 136.43 33.2174C136.905 33.0147 137.318 32.7328 137.679 32.3624C138.031 32.0011 138.312 31.5781 138.532 31.1022C138.752 30.6262 138.857 30.1238 138.857 29.5952L138.866 29.6039Z" fill="#6291C8"/>
<path d="M154.388 30.5997C154.388 33.2613 155.637 34.601 158.144 34.601C159.489 34.601 160.5 34.0547 161.178 32.9617H167.149C165.944 36.9717 162.928 38.9814 158.108 38.9814C156.631 38.9814 155.277 38.7609 154.045 38.3114C152.814 37.8706 151.767 37.2362 150.888 36.4166C150.008 35.5968 149.34 34.6187 148.857 33.4728C148.382 32.3359 148.135 31.0582 148.135 29.6481C148.135 28.2377 148.364 26.8719 148.821 25.6996C149.279 24.5274 149.921 23.5315 150.765 22.7119C151.609 21.8923 152.62 21.2577 153.817 20.817C155.013 20.3764 156.358 20.1472 157.862 20.1472C159.366 20.1472 160.668 20.3676 161.855 20.817C163.033 21.2577 164.036 21.9099 164.854 22.7471C165.672 23.5932 166.296 24.6244 166.727 25.8406C167.158 27.0569 167.378 28.4318 167.378 29.9565V30.6087H154.379L154.388 30.5997ZM161.617 27.0127C161.415 26.1491 160.993 25.4528 160.351 24.924C159.718 24.4041 158.944 24.1396 158.029 24.1396C157.071 24.1396 156.297 24.3952 155.69 24.8888C155.083 25.3911 154.705 26.0962 154.547 27.0039H161.608L161.617 27.0127Z" fill="#6291C8"/>
<path d="M185.6 19.1513C184.87 18.5608 184.149 18.1201 183.419 17.8381C182.689 17.5561 181.986 17.4151 181.308 17.4151C180.447 17.4151 179.743 17.6178 179.198 18.032C178.653 18.4462 178.38 18.975 178.38 19.636C178.38 20.0943 178.52 20.4645 178.793 20.7641C179.066 21.0638 179.426 21.3194 179.866 21.5309C180.306 21.7512 180.807 21.9363 181.37 22.0949C181.924 22.2536 182.478 22.421 183.023 22.6061C185.204 23.3376 186.805 24.3071 187.816 25.5321C188.828 26.7572 189.338 28.3436 189.338 30.3001C189.338 31.622 189.118 32.8209 188.67 33.8871C188.23 34.9623 187.579 35.879 186.726 36.6369C185.873 37.3947 184.826 37.9943 183.586 38.4173C182.346 38.8403 180.939 39.0518 179.374 39.0518C176.119 39.0518 173.112 38.0822 170.333 36.1434L173.2 30.7408C174.202 31.631 175.187 32.292 176.164 32.7237C177.14 33.1557 178.107 33.3759 179.066 33.3759C180.156 33.3759 180.974 33.1292 181.502 32.6268C182.038 32.1244 182.302 31.5603 182.302 30.9171C182.302 30.5293 182.232 30.1944 182.1 29.9123C181.959 29.6304 181.739 29.3659 181.414 29.1279C181.097 28.89 180.684 28.6697 180.165 28.4582C179.655 28.2555 179.03 28.0262 178.309 27.7708C177.448 27.4976 176.594 27.1977 175.768 26.8629C174.941 26.5367 174.202 26.0962 173.552 25.5498C172.901 25.0033 172.382 24.3159 171.986 23.4786C171.59 22.6502 171.388 21.5926 171.388 20.3146C171.388 19.0367 171.599 17.8822 172.021 16.8422C172.444 15.8023 173.033 14.9209 173.798 14.1806C174.563 13.4403 175.495 12.8674 176.594 12.4532C177.694 12.0478 178.934 11.8362 180.297 11.8362C181.572 11.8362 182.9 12.0125 184.29 12.365C185.679 12.7176 187.007 13.2376 188.283 13.9162L185.626 19.1425L185.6 19.1513Z" fill="#F38352"/>
<path d="M199.1 9.95026V38.3202H192.926V9.95026H199.1Z" fill="#F38352"/>
<path d="M202.925 14.0572C202.925 13.5813 203.013 13.1318 203.198 12.7087C203.383 12.2857 203.629 11.9156 203.945 11.5983C204.262 11.281 204.631 11.0254 205.053 10.8492C205.476 10.6641 205.924 10.5759 206.399 10.5759C206.874 10.5759 207.323 10.6641 207.745 10.8492C208.167 11.0342 208.536 11.281 208.853 11.5983C209.169 11.9156 209.424 12.2857 209.6 12.7087C209.785 13.1318 209.873 13.5813 209.873 14.0572C209.873 14.5331 209.785 14.9826 209.6 15.4056C209.416 15.8287 209.169 16.1988 208.853 16.5161C208.536 16.8334 208.167 17.089 207.745 17.2652C207.323 17.4503 206.874 17.5384 206.399 17.5384C205.924 17.5384 205.476 17.4503 205.053 17.2652C204.631 17.0801 204.262 16.8334 203.945 16.5161C203.629 16.1988 203.374 15.8287 203.198 15.4056C203.013 14.9826 202.925 14.5331 202.925 14.0572ZM209.512 20.7906V38.3291H203.339V20.7906H209.512Z" fill="#F38352"/>
<path d="M226.934 26.4576C225.87 25.7261 224.789 25.3648 223.698 25.3648C223.109 25.3648 222.555 25.4705 222.045 25.6732C221.535 25.8759 221.086 26.1668 220.699 26.5458C220.312 26.9248 220.013 27.3653 219.793 27.8765C219.574 28.3876 219.468 28.9607 219.468 29.6039C219.468 30.2474 219.574 30.7851 219.793 31.2962C220.013 31.8073 220.304 32.2568 220.682 32.6269C221.06 32.9972 221.508 33.2968 222.027 33.4993C222.546 33.7021 223.109 33.808 223.698 33.808C224.859 33.808 225.941 33.4112 226.934 32.6094V37.871C225.413 38.5319 223.971 38.8581 222.608 38.8581C221.332 38.8581 220.119 38.6376 218.976 38.2058C217.823 37.7738 216.812 37.1481 215.941 36.3463C215.062 35.5352 214.367 34.5658 213.839 33.4377C213.321 32.3098 213.057 31.0492 213.057 29.6569C213.057 28.2643 213.303 26.9953 213.804 25.8495C214.306 24.6949 214.983 23.7078 215.853 22.8794C216.715 22.0509 217.744 21.3988 218.94 20.9317C220.136 20.4646 221.412 20.2354 222.775 20.2354C224.279 20.2354 225.659 20.5527 226.934 21.1961V26.4576Z" fill="#F38352"/>
<path d="M236.011 30.5997C236.011 33.2613 237.259 34.601 239.766 34.601C241.111 34.601 242.123 34.0547 242.8 32.9617H248.771C247.566 36.9717 244.55 38.9814 239.731 38.9814C238.253 38.9814 236.899 38.7609 235.667 38.3114C234.436 37.8706 233.39 37.2362 232.51 36.4166C231.631 35.5968 230.962 34.6187 230.479 33.4728C230.004 32.3359 229.757 31.0582 229.757 29.6481C229.757 28.2377 229.986 26.8719 230.443 25.6996C230.901 24.5274 231.543 23.5315 232.387 22.7119C233.231 21.8923 234.243 21.2577 235.439 20.817C236.635 20.3764 237.98 20.1472 239.484 20.1472C240.988 20.1472 242.29 20.3676 243.477 20.817C244.655 21.2577 245.658 21.9099 246.476 22.7471C247.294 23.5932 247.918 24.6244 248.349 25.8406C248.78 27.0569 249 28.4318 249 29.9565V30.6087H236.002L236.011 30.5997ZM243.24 27.0127C243.037 26.1491 242.615 25.4528 241.973 24.924C241.34 24.4041 240.566 24.1396 239.651 24.1396C238.693 24.1396 237.919 24.3952 237.312 24.8888C236.705 25.3911 236.327 26.0962 236.169 27.0039H243.231L243.24 27.0127Z" fill="#F38352"/>
</g>
<defs>
<linearGradient id="paint0_linear_5636_191" x1="27.2368" y1="16.807" x2="47.8862" y2="-3.79862" gradientUnits="userSpaceOnUse">
<stop offset="0.47" stop-color="#6B9DCF"/>
<stop offset="1" stop-color="#466AB0"/>
</linearGradient>
<linearGradient id="paint1_linear_5636_191" x1="33.2874" y1="43.9166" x2="54.4647" y2="43.9166" gradientUnits="userSpaceOnUse">
<stop stop-color="#8FD7F0"/>
<stop offset="1" stop-color="#486AB2"/>
</linearGradient>
<linearGradient id="paint2_linear_5636_191" x1="10.9404" y1="24.034" x2="31.2646" y2="24.034" gradientUnits="userSpaceOnUse">
<stop stop-color="#8FD7F0"/>
<stop offset="1" stop-color="#486AB2"/>
</linearGradient>
<linearGradient id="paint3_linear_5636_191" x1="0" y1="41.9424" x2="19.4711" y2="41.9424" gradientUnits="userSpaceOnUse">
<stop offset="0.09" stop-color="#F2775D"/>
<stop offset="0.88" stop-color="#E34D62"/>
</linearGradient>
<linearGradient id="paint4_linear_5636_191" x1="33.3224" y1="24.5627" x2="53.6468" y2="24.5627" gradientUnits="userSpaceOnUse">
<stop stop-color="#8FD7F0"/>
<stop offset="1" stop-color="#486AB2"/>
</linearGradient>
<linearGradient id="paint5_linear_5636_191" x1="0.721191" y1="33.4728" x2="30.9832" y2="33.4728" gradientUnits="userSpaceOnUse">
<stop stop-color="#F4896D"/>
<stop offset="1" stop-color="#E14C61"/>
</linearGradient>
<linearGradient id="paint6_linear_5636_191" x1="26.7882" y1="50.8352" x2="31.1328" y2="50.8352" gradientUnits="userSpaceOnUse">
<stop stop-color="#60A5D4"/>
<stop offset="1" stop-color="#486AB2"/>
</linearGradient>
<linearGradient id="paint7_linear_5636_191" x1="22.0128" y1="41.643" x2="41.9149" y2="41.643" gradientUnits="userSpaceOnUse">
<stop stop-color="#F8AD96"/>
<stop offset="1" stop-color="#F2775D"/>
</linearGradient>
<clipPath id="clip0_5636_191">
<rect width="249" height="54" fill="white"/>
</clipPath>
</defs>
</svg>
