<svg width="20" height="20" viewBox="0 0 20 20" fill="none" xmlns="http://www.w3.org/2000/svg">
<path fill-rule="evenodd" clip-rule="evenodd" d="M7.14631 0.100006C6.09601 0.100782 5.246 0.953128 5.24677 2.00342C5.246 3.05372 6.09679 3.90606 7.14709 3.90684H9.0474V2.0042C9.04817 0.953904 8.19738 0.101559 7.14631 0.100006C7.14709 0.100006 7.14709 0.100006 7.14631 0.100006M7.14631 5.17682H2.08037C1.03007 5.17759 0.17928 6.02994 0.180056 7.08023C0.178503 8.13053 1.0293 8.98287 2.07959 8.98443H7.14631C8.1966 8.98365 9.0474 8.1313 9.04662 7.08101C9.0474 6.02994 8.1966 5.17759 7.14631 5.17682Z" fill="white"/>
<path fill-rule="evenodd" clip-rule="evenodd" d="M19.1801 7.08023C19.1809 6.02994 18.3301 5.17759 17.2798 5.17682C16.2295 5.17759 15.3787 6.02994 15.3795 7.08023V8.98443H17.2798C18.3301 8.98365 19.1809 8.1313 19.1801 7.08023ZM14.1134 7.08023V2.00342C14.1142 0.953904 13.2641 0.101559 12.2139 0.100006C11.1636 0.100782 10.3128 0.953128 10.3135 2.00342V7.08023C10.312 8.13053 11.1628 8.98287 12.2131 8.98443C13.2634 8.98365 14.1142 8.1313 14.1134 7.08023Z" fill="white"/>
<path fill-rule="evenodd" clip-rule="evenodd" d="M12.2129 19.1382C13.2632 19.1374 14.114 18.2851 14.1132 17.2348C14.114 16.1845 13.2632 15.3322 12.2129 15.3314H10.3126V17.2348C10.3118 18.2843 11.1626 19.1367 12.2129 19.1382ZM12.2129 14.0606H17.2797C18.3299 14.0599 19.1807 13.2075 19.18 12.1572C19.1815 11.1069 18.3307 10.2546 17.2804 10.253H12.2137C11.1634 10.2538 10.3126 11.1061 10.3134 12.1564C10.3126 13.2075 11.1626 14.0599 12.2129 14.0606Z" fill="white"/>
<path fill-rule="evenodd" clip-rule="evenodd" d="M0.180054 12.1569C0.179278 13.2072 1.03007 14.0595 2.08036 14.0603C3.13066 14.0595 3.98145 13.2072 3.98068 12.1569V10.2535H2.08036C1.03007 10.2543 0.179278 11.1066 0.180054 12.1569ZM5.24677 12.1569V17.2337C5.24522 18.284 6.09601 19.1363 7.14631 19.1379C8.1966 19.1371 9.04739 18.2848 9.04662 17.2345V12.1584C9.04817 11.1082 8.19738 10.2558 7.14708 10.2543C6.09601 10.2543 5.246 11.1066 5.24677 12.1569C5.24677 12.1577 5.24677 12.1569 5.24677 12.1569Z" fill="white"/>
</svg>
