<svg width="24" height="17" viewBox="0 0 24 17" fill="none" xmlns="http://www.w3.org/2000/svg">
<path d="M12.2429 16.5981L7.50329 16.5114C5.9687 16.4811 4.4303 16.5415 2.9258 16.2282C0.637105 15.76 0.474966 13.4647 0.305305 11.5394C0.0715285 8.83264 0.16203 6.07674 0.603196 3.39257C0.852248 1.88646 1.83237 0.98776 3.3481 0.889964C8.46478 0.535048 13.6155 0.577109 18.7208 0.74269C19.26 0.757869 19.8029 0.840834 20.3346 0.935269C22.959 1.39586 23.023 3.99695 23.1931 6.18659C23.3628 8.39881 23.2912 10.6224 22.9669 12.8196C22.7067 14.6388 22.209 16.1643 20.1083 16.3116C17.4764 16.5042 14.9049 16.6592 12.2655 16.6099C12.2656 16.5981 12.2505 16.5981 12.2429 16.5981ZM9.45648 11.9925C11.4399 10.8523 13.3854 9.73111 15.3575 8.59858C13.3704 7.4584 11.4285 6.33722 9.45648 5.20469V11.9925Z" fill="white"/>
</svg>
